<svg id="svg" version="1.1" xmlns="http://www.w3.org/2000/svg" xmlns:xlink="http://www.w3.org/1999/xlink" width="400" height="400" viewBox="0, 0, 400,400"><g id="svgg"><path id="path0" d="M0.000 200.000 L 0.000 400.000 200.000 400.000 L 400.000 400.000 400.000 200.000 L 400.000 0.000 200.000 0.000 L 0.000 0.000 0.000 200.000 M223.800 82.801 C 232.731 83.225,235.808 83.780,240.600 85.834 C 242.451 86.628,247.382 88.000,248.382 88.000 C 250.687 88.000,255.334 89.790,257.310 91.439 C 257.921 91.949,259.451 92.666,260.710 93.034 C 264.657 94.186,266.892 95.236,268.371 96.633 C 269.157 97.376,270.340 98.176,271.000 98.412 C 273.713 99.380,277.197 101.400,277.979 102.458 C 278.438 103.078,279.645 103.965,280.661 104.428 C 281.677 104.890,282.770 105.479,283.092 105.735 C 284.459 106.824,285.600 108.155,285.600 108.658 C 285.600 108.956,285.930 109.200,286.334 109.200 C 287.333 109.200,290.435 111.672,291.323 113.176 C 291.720 113.849,292.287 114.400,292.582 114.400 C 293.162 114.400,297.200 118.625,297.200 119.232 C 297.200 119.435,297.433 119.600,297.719 119.600 C 298.449 119.600,300.978 122.363,301.565 123.800 C 301.834 124.460,302.945 125.720,304.033 126.600 C 305.122 127.480,306.126 128.650,306.265 129.200 C 306.588 130.483,307.888 132.346,309.287 133.530 C 309.892 134.041,311.174 136.111,312.138 138.130 C 313.102 140.148,314.546 142.583,315.348 143.541 C 316.149 144.499,316.911 145.759,317.040 146.341 C 317.525 148.533,319.691 153.867,320.799 155.600 C 321.611 156.869,322.248 158.817,322.957 162.200 C 324.530 169.697,325.472 173.706,325.938 174.884 C 327.096 177.804,327.687 185.346,327.468 194.400 C 327.263 202.863,327.033 204.901,325.658 210.400 C 324.187 216.282,323.235 220.561,322.809 223.200 C 322.286 226.444,321.474 228.741,320.448 229.880 C 319.760 230.644,319.214 231.926,317.927 235.800 C 316.830 239.103,316.278 240.170,314.002 243.400 C 312.917 244.940,312.022 246.539,312.014 246.953 C 311.993 248.064,310.517 250.262,309.126 251.253 C 308.456 251.730,307.500 253.000,307.002 254.075 C 306.504 255.150,305.315 256.878,304.360 257.915 C 303.404 258.952,301.970 260.610,301.172 261.600 C 297.866 265.705,290.890 272.307,287.623 274.424 C 286.511 275.145,285.600 275.978,285.600 276.275 C 285.600 276.757,280.467 280.400,279.788 280.400 C 279.638 280.400,279.156 280.857,278.716 281.416 C 277.925 282.421,273.179 285.103,271.148 285.693 C 270.356 285.922,269.742 286.715,268.663 288.900 L 267.229 291.802 267.831 294.601 C 268.994 300.004,267.572 310.685,265.440 312.566 C 264.150 313.703,264.036 313.988,263.987 316.200 C 263.897 320.323,263.655 320.000,266.829 320.000 C 273.054 320.000,278.815 322.912,278.793 326.047 C 278.784 327.389,277.125 330.165,276.229 330.338 C 275.817 330.417,275.074 330.964,274.578 331.554 C 272.895 333.554,266.032 335.221,257.000 335.822 C 254.111 336.015,252.718 336.290,251.984 336.812 C 249.702 338.436,240.534 339.868,227.600 340.622 C 225.290 340.756,222.320 341.140,221.000 341.476 C 217.676 342.319,211.421 342.298,206.400 341.425 C 203.054 340.843,201.387 340.760,198.200 341.018 C 188.847 341.773,170.817 340.922,167.526 339.570 C 165.485 338.732,162.757 338.599,160.115 339.209 C 158.856 339.499,157.793 339.442,155.915 338.984 C 154.532 338.647,151.814 338.210,149.876 338.014 C 147.937 337.818,146.137 337.486,145.876 337.276 C 145.064 336.623,141.365 336.012,135.845 335.617 C 126.494 334.949,119.138 333.396,116.800 331.597 C 116.030 331.004,114.943 330.408,114.384 330.273 C 113.029 329.945,110.686 327.530,110.182 325.942 C 109.571 324.017,112.671 321.966,117.043 321.404 C 120.764 320.925,121.475 320.182,121.272 316.991 C 121.096 314.224,119.983 311.234,118.362 309.175 C 117.194 307.690,116.667 303.141,116.938 296.869 L 117.168 291.537 115.488 289.939 C 114.564 289.061,113.324 288.245,112.732 288.126 C 112.140 288.008,111.250 287.479,110.754 286.951 C 110.258 286.423,109.140 285.799,108.269 285.565 C 107.398 285.330,105.537 284.612,104.133 283.969 C 102.729 283.326,101.420 282.800,101.226 282.800 C 101.031 282.800,100.442 282.290,99.918 281.668 C 99.394 281.045,97.391 279.759,95.466 278.810 C 93.542 277.861,91.659 276.704,91.283 276.240 C 90.908 275.776,90.093 275.070,89.473 274.671 C 88.854 274.273,87.999 273.599,87.573 273.173 C 87.148 272.748,86.546 272.400,86.236 272.400 C 85.925 272.400,84.727 271.323,83.574 270.007 C 82.420 268.691,81.099 267.501,80.638 267.362 C 79.586 267.046,77.600 265.213,77.600 264.559 C 77.600 264.289,76.430 263.040,75.000 261.785 C 73.570 260.530,72.400 259.269,72.400 258.983 C 72.400 258.698,71.285 257.349,69.923 255.987 C 67.024 253.088,64.400 248.337,64.400 245.988 C 64.400 245.165,64.131 243.976,63.802 243.346 C 63.049 241.902,63.049 241.423,63.800 240.800 C 64.130 240.526,64.401 239.829,64.402 239.251 C 64.408 236.406,66.290 232.903,68.874 230.927 C 69.685 230.307,70.945 229.321,71.674 228.735 C 72.781 227.845,73.659 227.595,77.000 227.219 C 84.523 226.371,87.307 225.554,87.783 224.055 C 87.914 223.640,89.065 222.481,90.340 221.480 C 92.409 219.854,92.709 219.430,93.129 217.529 C 94.257 212.433,96.000 200.606,96.000 198.054 C 96.000 197.008,96.350 194.723,96.778 192.976 C 97.772 188.919,98.696 181.243,98.990 174.600 C 99.190 170.085,99.626 167.210,101.160 160.299 C 101.343 159.473,101.960 158.123,102.530 157.299 C 103.101 156.474,103.778 154.810,104.036 153.600 C 104.293 152.390,104.931 150.433,105.452 149.250 C 105.973 148.068,106.400 146.888,106.400 146.629 C 106.400 146.369,107.011 145.565,107.757 144.841 C 108.504 144.118,109.214 143.031,109.335 142.426 C 109.737 140.417,112.463 135.177,113.439 134.538 C 113.968 134.191,114.400 133.741,114.400 133.537 C 114.400 133.333,114.761 132.779,115.202 132.306 C 115.643 131.833,116.362 130.704,116.801 129.799 C 117.239 128.893,118.121 127.766,118.759 127.293 C 119.398 126.821,120.556 125.392,121.331 124.117 C 122.106 122.843,123.307 121.467,124.000 121.060 C 124.692 120.653,125.872 119.466,126.622 118.423 C 127.371 117.379,128.804 116.008,129.804 115.375 C 130.805 114.743,131.960 113.656,132.370 112.961 C 133.090 111.740,136.319 109.200,137.150 109.200 C 137.374 109.200,137.791 108.718,138.078 108.129 C 138.410 107.448,139.913 106.302,142.200 104.985 C 144.180 103.846,145.850 102.663,145.911 102.357 C 146.051 101.652,151.228 98.800,152.366 98.800 C 152.835 98.800,153.980 98.098,154.911 97.239 C 156.624 95.660,160.543 93.607,161.874 93.591 C 162.827 93.580,165.409 92.388,167.356 91.060 C 168.997 89.942,174.592 88.000,176.173 88.000 C 177.103 88.000,183.218 86.185,187.000 84.786 C 192.566 82.728,206.454 81.978,223.800 82.801 M174.599 302.146 C 174.258 302.666,173.726 304.601,173.418 306.446 C 172.513 311.855,172.350 312.370,171.248 313.308 C 170.384 314.043,170.200 314.541,170.200 316.137 C 170.200 317.203,170.065 318.158,169.900 318.261 C 168.575 319.084,169.803 319.600,173.100 319.605 C 178.013 319.611,185.332 321.725,185.825 323.280 C 186.017 323.884,186.434 323.942,189.122 323.740 C 190.917 323.606,193.200 323.710,194.600 323.991 C 197.815 324.636,200.534 323.978,205.241 321.416 C 206.799 320.568,207.949 320.300,210.809 320.114 C 215.011 319.842,215.040 319.806,214.707 315.268 C 214.545 313.066,214.317 312.390,213.405 311.400 C 212.366 310.272,210.882 305.886,210.823 303.770 C 210.752 301.216,210.635 301.200,192.083 301.200 L 175.218 301.200 174.599 302.146 " stroke="none" fill="#72d0ea" fill-rule="evenodd"></path><path id="path1" d="M194.600 86.611 C 192.219 87.476,184.044 89.435,177.089 90.806 C 175.036 91.211,173.952 91.691,172.446 92.860 C 171.921 93.267,171.190 93.600,170.821 93.600 C 170.452 93.600,169.441 93.943,168.573 94.362 C 167.706 94.781,165.964 95.393,164.702 95.723 C 162.393 96.326,161.977 96.543,157.810 99.317 C 156.557 100.151,154.962 100.941,154.266 101.073 C 152.590 101.390,151.587 101.923,150.519 103.061 C 150.035 103.577,149.514 104.000,149.363 104.000 C 149.212 104.000,148.888 104.250,148.644 104.555 C 148.240 105.061,147.332 105.612,143.218 107.849 C 141.629 108.713,141.167 109.127,140.574 110.217 C 140.340 110.648,139.233 111.450,138.114 112.000 C 136.790 112.651,135.490 113.752,134.388 115.155 C 133.457 116.340,132.220 117.489,131.638 117.708 C 131.057 117.927,130.135 118.738,129.591 119.509 C 128.614 120.891,127.964 121.570,125.191 124.110 C 124.416 124.819,123.370 126.251,122.867 127.291 C 122.364 128.332,121.444 129.483,120.822 129.851 C 120.200 130.218,119.402 131.077,119.048 131.759 C 117.795 134.174,116.890 135.610,115.307 137.693 C 112.912 140.845,112.483 141.625,112.030 143.659 C 111.801 144.682,110.741 146.842,109.674 148.459 C 107.698 151.454,106.400 154.566,106.400 156.312 C 106.400 156.846,105.860 158.894,105.200 160.864 C 104.540 162.834,103.999 164.660,103.998 164.923 C 103.996 165.185,103.740 165.888,103.429 166.485 C 102.270 168.706,101.200 177.038,101.200 183.839 C 101.200 190.515,98.990 209.123,97.895 211.668 C 96.924 213.924,95.996 216.956,95.998 217.867 C 96.003 220.028,92.878 224.800,91.457 224.800 C 91.192 224.800,90.784 225.307,90.550 225.927 C 89.741 228.069,87.468 228.860,79.492 229.773 C 74.822 230.308,74.771 230.325,73.001 231.956 C 72.020 232.860,71.034 233.600,70.810 233.600 C 70.585 233.600,69.726 234.237,68.901 235.016 L 67.400 236.431 67.400 241.916 C 67.400 247.255,68.521 251.195,70.041 251.199 C 70.244 251.200,70.990 252.104,74.497 256.600 C 74.668 256.820,75.180 257.495,75.633 258.100 C 76.087 258.705,76.715 259.200,77.029 259.200 C 77.343 259.200,77.600 259.335,77.600 259.500 C 77.600 259.665,78.230 260.508,79.000 261.373 C 79.770 262.238,80.400 263.273,80.400 263.673 C 80.400 264.127,80.693 264.400,81.179 264.400 C 81.608 264.400,83.059 265.345,84.404 266.500 C 89.463 270.844,91.415 272.374,91.919 272.387 C 92.204 272.394,93.284 273.235,94.319 274.256 C 96.001 275.916,98.916 277.600,100.107 277.600 C 100.350 277.600,101.372 278.294,102.378 279.143 C 104.422 280.866,108.215 282.800,109.552 282.800 C 110.372 282.800,112.555 283.827,115.451 285.574 C 117.126 286.585,119.471 288.965,119.794 289.980 C 119.937 290.431,120.203 290.800,120.384 290.800 C 121.071 290.800,121.127 292.010,120.551 294.463 C 119.835 297.516,120.145 302.121,121.231 304.577 C 121.629 305.477,122.143 307.053,122.373 308.079 C 122.962 310.707,125.149 315.195,126.479 316.503 C 127.095 317.110,127.600 317.711,127.600 317.838 C 127.600 318.438,130.664 322.391,131.133 322.395 C 131.426 322.398,132.686 322.991,133.933 323.713 C 138.784 326.521,145.109 327.640,150.000 326.557 C 152.584 325.984,158.878 323.343,159.133 322.724 C 159.207 322.546,159.490 322.400,159.764 322.400 C 160.341 322.400,162.000 320.734,162.000 320.155 C 162.000 319.939,162.719 319.060,163.597 318.203 C 164.694 317.131,165.655 315.533,166.663 313.100 C 167.471 311.152,168.441 309.392,168.819 309.190 C 169.197 308.988,169.597 308.322,169.708 307.711 C 170.743 302.022,172.374 299.135,174.962 298.411 C 176.792 297.898,204.613 298.093,209.312 298.651 C 211.167 298.872,213.981 301.002,213.999 302.200 C 214.002 302.420,214.296 303.140,214.652 303.800 C 215.569 305.501,217.200 309.651,217.200 310.284 C 217.200 311.501,219.855 316.154,221.085 317.092 C 221.808 317.644,222.400 318.372,222.400 318.710 C 222.400 321.651,233.225 327.208,238.927 327.194 C 244.653 327.180,254.285 323.366,255.913 320.469 C 256.413 319.580,257.356 318.403,258.011 317.852 C 258.665 317.302,259.200 316.745,259.200 316.615 C 259.200 316.484,259.830 315.103,260.600 313.545 C 261.370 311.987,262.000 310.471,262.000 310.176 C 262.000 309.881,262.229 309.496,262.510 309.320 C 264.611 308.001,265.697 301.218,264.829 294.840 C 264.071 289.272,266.289 283.925,269.741 282.997 C 271.697 282.471,275.015 280.502,276.309 279.100 C 277.070 278.275,277.971 277.600,278.311 277.600 C 279.480 277.600,282.310 275.618,283.133 274.224 C 283.611 273.413,284.556 272.578,285.390 272.230 C 286.179 271.900,287.755 270.634,288.891 269.415 C 290.028 268.197,291.164 267.200,291.416 267.200 C 291.668 267.200,292.757 266.195,293.837 264.967 C 296.089 262.404,296.217 262.279,297.700 261.167 C 298.305 260.713,298.800 260.085,298.800 259.771 C 298.800 259.457,298.976 259.200,299.192 259.200 C 299.407 259.200,299.929 258.525,300.352 257.700 C 300.774 256.875,301.662 255.802,302.324 255.315 C 302.986 254.828,304.199 253.187,305.019 251.668 C 305.884 250.067,306.990 248.624,307.653 248.232 C 308.281 247.861,308.912 247.072,309.055 246.479 C 309.198 245.885,309.920 244.270,310.658 242.890 C 311.396 241.509,312.000 240.127,312.000 239.819 C 312.000 239.510,312.512 238.840,313.139 238.329 C 314.193 237.469,317.200 229.760,317.200 227.918 C 317.200 227.609,317.707 226.556,318.327 225.578 C 321.913 219.919,324.481 195.855,322.977 182.000 C 321.583 169.154,320.524 163.781,318.605 159.800 C 317.357 157.212,315.829 153.003,314.657 148.927 C 314.389 147.994,313.695 146.875,313.088 146.398 C 312.490 145.927,312.000 145.371,312.000 145.163 C 312.000 144.168,308.498 137.894,306.551 135.400 C 305.348 133.860,304.259 132.101,304.130 131.490 C 304.001 130.880,303.334 129.984,302.648 129.499 C 301.036 128.360,300.230 127.413,298.989 125.200 C 298.434 124.210,297.465 123.105,296.836 122.745 C 296.206 122.385,294.952 121.088,294.048 119.865 C 293.144 118.641,291.818 117.360,291.102 117.019 C 290.386 116.678,289.036 115.409,288.102 114.200 C 286.980 112.746,286.114 112.000,285.547 112.000 C 285.020 112.000,283.824 111.088,282.445 109.634 C 281.111 108.229,279.592 107.060,278.702 106.755 C 277.878 106.472,276.652 105.737,275.977 105.120 C 275.303 104.504,274.650 104.000,274.528 104.000 C 274.406 104.000,273.713 103.480,272.989 102.844 C 272.265 102.209,270.712 101.372,269.537 100.985 C 268.361 100.598,267.310 100.154,267.200 99.997 C 267.090 99.840,266.415 99.412,265.700 99.046 C 264.985 98.679,264.400 98.151,264.400 97.873 C 264.400 97.410,263.054 96.874,258.600 95.562 C 257.187 95.146,254.697 93.994,250.521 91.826 C 249.817 91.461,248.121 90.982,246.750 90.761 C 245.380 90.540,244.152 90.294,244.023 90.214 C 243.633 89.973,234.657 88.000,233.951 88.000 C 233.591 88.000,232.240 87.505,230.948 86.900 L 228.600 85.800 213.000 85.697 L 197.400 85.595 194.600 86.611 M224.200 95.598 C 225.740 95.840,227.630 96.368,228.400 96.772 C 229.887 97.552,236.054 98.802,238.408 98.801 C 240.006 98.800,245.604 100.258,246.180 100.826 C 246.389 101.032,246.886 101.200,247.284 101.200 C 247.682 101.200,248.321 101.573,248.704 102.029 C 249.553 103.039,251.238 103.781,253.499 104.140 C 255.944 104.527,259.576 106.231,261.200 107.751 C 261.980 108.482,263.639 109.402,264.947 109.830 C 266.652 110.388,267.800 111.114,269.147 112.488 C 270.166 113.529,271.239 114.384,271.532 114.390 C 271.825 114.395,273.014 115.030,274.174 115.800 C 275.334 116.570,276.485 117.200,276.731 117.200 C 276.978 117.200,277.442 117.695,277.762 118.300 C 278.388 119.482,280.528 121.311,282.148 122.049 C 282.697 122.299,283.743 123.394,284.473 124.481 C 285.206 125.574,286.456 126.800,287.265 127.220 C 288.245 127.729,289.154 128.722,290.010 130.217 C 290.714 131.447,291.684 132.604,292.167 132.788 C 293.196 133.179,294.721 135.086,295.978 137.554 C 296.469 138.518,297.264 139.700,297.743 140.180 C 299.425 141.861,301.200 144.321,301.200 144.970 C 301.200 146.160,302.355 148.416,303.602 149.664 C 304.868 150.930,306.401 153.573,306.398 154.484 C 306.396 155.201,308.518 161.755,308.831 162.000 C 309.517 162.536,311.220 166.377,311.570 168.174 C 313.886 180.078,314.502 195.232,313.068 205.000 C 312.680 207.640,312.189 211.411,311.976 213.381 C 311.652 216.386,311.280 217.609,309.662 220.981 C 307.963 224.522,307.093 227.038,306.233 230.891 C 306.099 231.491,305.160 233.001,304.146 234.246 C 303.132 235.490,302.002 237.340,301.636 238.355 C 300.674 241.023,300.102 241.939,297.989 244.189 C 296.950 245.295,295.964 246.650,295.797 247.200 C 295.334 248.724,293.226 251.200,292.391 251.200 C 291.889 251.200,291.279 251.941,290.500 253.500 C 289.586 255.326,288.985 255.986,287.581 256.704 C 286.488 257.264,285.549 258.123,285.122 258.956 C 284.366 260.429,282.245 262.400,281.416 262.400 C 280.949 262.400,279.522 263.836,277.504 266.337 C 277.121 266.812,276.535 267.200,276.200 267.200 C 275.529 267.200,272.968 268.965,270.790 270.929 C 269.331 272.244,268.096 272.930,264.484 274.432 C 263.320 274.916,262.181 275.662,261.952 276.090 C 260.845 278.157,255.256 278.438,252.670 276.555 C 246.093 271.767,230.717 271.493,227.276 276.102 C 226.987 276.489,226.247 277.065,225.630 277.384 C 225.014 277.703,222.800 279.682,220.710 281.782 C 218.620 283.882,216.616 285.600,216.255 285.600 C 215.895 285.600,215.257 285.943,214.839 286.361 C 213.669 287.531,209.656 287.836,199.600 287.520 C 194.650 287.364,187.090 287.156,182.800 287.058 C 177.422 286.934,174.260 286.680,172.616 286.239 C 171.305 285.888,169.826 285.600,169.330 285.600 C 168.147 285.600,165.627 283.363,164.929 281.693 C 164.626 280.967,163.888 280.155,163.289 279.889 C 162.690 279.623,161.853 279.092,161.429 278.707 C 161.006 278.323,160.349 277.911,159.969 277.790 C 159.590 277.670,159.176 277.158,159.049 276.652 C 157.917 272.142,134.467 271.645,132.980 276.100 C 132.045 278.899,122.661 279.088,119.765 276.367 C 119.241 275.875,117.865 275.127,116.707 274.704 C 115.548 274.281,113.520 273.541,112.200 273.059 C 110.880 272.577,109.260 271.672,108.600 271.049 C 107.383 269.899,102.426 267.200,101.532 267.200 C 100.892 267.200,98.800 265.187,98.800 264.572 C 98.800 264.308,97.633 263.512,96.206 262.803 C 94.497 261.953,93.331 261.060,92.791 260.186 C 92.340 259.456,91.179 258.395,90.211 257.827 C 89.242 257.260,87.764 255.942,86.925 254.898 C 86.086 253.854,85.130 252.839,84.800 252.642 C 82.184 251.078,79.822 246.735,79.123 242.200 C 78.898 240.737,86.218 238.052,90.538 238.014 C 92.053 238.000,93.203 237.387,95.800 235.207 C 97.784 233.542,101.188 229.833,101.194 229.329 C 101.197 229.070,101.756 228.423,102.436 227.891 C 103.422 227.119,103.781 226.406,104.212 224.362 C 104.509 222.953,105.121 220.630,105.571 219.200 C 106.021 217.770,106.392 216.231,106.395 215.780 C 106.398 215.329,106.563 214.789,106.763 214.580 C 107.692 213.606,108.850 208.082,109.209 202.912 C 109.419 199.880,109.689 196.500,109.808 195.400 C 109.927 194.300,110.289 189.620,110.611 185.000 C 111.503 172.205,112.125 168.418,113.658 166.446 C 114.066 165.921,114.400 164.973,114.400 164.339 C 114.400 161.474,116.738 154.669,118.571 152.200 C 119.683 150.703,120.624 148.834,121.694 146.000 C 122.426 144.061,123.230 142.973,124.600 142.065 C 124.820 141.919,125.413 140.990,125.917 140.000 C 127.491 136.909,127.816 136.455,130.340 133.800 C 131.693 132.377,132.800 131.037,132.800 130.821 C 132.800 130.205,135.224 127.600,135.797 127.600 C 136.299 127.600,139.600 124.081,139.600 123.546 C 139.600 123.397,140.369 122.826,141.308 122.275 C 142.248 121.724,143.948 120.357,145.086 119.237 C 146.224 118.117,147.323 117.200,147.529 117.200 C 147.734 117.200,148.137 116.917,148.424 116.571 C 149.130 115.721,151.778 114.400,152.776 114.400 C 153.304 114.400,153.671 114.055,153.834 113.407 C 154.185 112.010,159.083 109.210,161.200 109.197 C 161.530 109.195,162.440 108.586,163.223 107.844 C 165.450 105.732,167.731 104.728,172.900 103.582 C 174.165 103.302,175.200 102.925,175.200 102.745 C 175.200 101.532,181.858 99.240,186.793 98.756 C 191.947 98.250,194.752 97.652,195.976 96.796 C 196.539 96.403,198.170 95.953,199.600 95.797 C 201.030 95.641,203.460 95.367,205.000 95.188 C 208.584 94.771,220.555 95.027,224.200 95.598 M177.734 157.679 C 175.915 158.309,175.147 158.803,174.807 159.566 C 174.553 160.135,173.907 161.241,173.372 162.023 C 172.283 163.614,171.424 168.695,171.998 170.150 C 172.182 170.617,172.555 171.900,172.825 173.000 C 173.439 175.494,174.887 177.117,176.770 177.422 C 177.557 177.549,178.830 177.915,179.600 178.234 C 181.564 179.048,186.847 178.062,188.300 176.610 C 188.839 176.070,189.623 175.520,190.040 175.387 C 190.458 175.255,190.800 174.820,190.800 174.422 C 190.800 174.024,191.057 173.485,191.371 173.224 C 192.359 172.404,193.108 169.493,192.927 167.179 C 192.654 163.700,192.455 163.205,190.977 162.334 C 190.209 161.880,189.116 160.716,188.547 159.746 C 186.851 156.852,182.518 156.024,177.734 157.679 M238.786 157.739 C 235.986 158.828,235.602 159.091,235.593 159.924 C 235.589 160.296,235.073 161.356,234.446 162.280 C 232.828 164.668,232.467 168.570,233.593 171.504 C 234.037 172.662,234.400 173.884,234.400 174.220 C 234.400 175.635,236.053 177.117,237.947 177.400 C 238.966 177.552,240.278 177.958,240.863 178.303 C 242.290 179.143,247.677 178.148,249.385 176.728 C 253.441 173.356,253.997 172.254,253.999 167.575 C 254.000 163.677,253.374 162.023,251.884 161.989 C 251.618 161.983,250.950 161.343,250.400 160.568 C 248.297 157.602,248.170 157.499,246.174 157.172 C 243.077 156.663,241.177 156.809,238.786 157.739 M250.843 201.581 C 249.876 202.202,248.837 203.226,248.534 203.855 C 248.230 204.485,247.539 205.720,246.998 206.600 C 246.456 207.480,246.010 208.617,246.007 209.126 C 245.996 210.635,243.145 214.400,242.013 214.400 C 241.814 214.400,241.438 214.985,241.177 215.700 C 240.695 217.023,237.707 219.600,236.656 219.600 C 236.338 219.600,235.897 220.119,235.676 220.754 C 235.274 221.907,231.758 223.944,228.955 224.647 C 228.345 224.800,227.115 225.436,226.223 226.059 C 221.324 229.482,203.296 229.531,198.360 226.135 C 197.293 225.401,196.204 224.800,195.942 224.800 C 194.088 224.800,188.515 221.541,187.981 220.145 C 187.801 219.674,186.638 218.708,185.396 217.998 C 184.155 217.288,183.047 216.412,182.934 216.053 C 182.455 214.525,180.969 212.156,179.534 210.635 C 178.686 209.736,177.923 208.730,177.837 208.400 C 177.752 208.070,177.467 206.711,177.204 205.380 C 176.503 201.840,175.968 201.344,172.503 201.022 C 168.529 200.652,167.569 201.546,167.891 205.316 C 168.220 209.153,169.769 213.677,171.092 214.663 C 171.734 215.141,172.420 216.215,172.723 217.213 C 173.367 219.333,175.090 221.811,176.312 222.374 C 176.813 222.605,177.353 223.132,177.512 223.545 C 178.005 224.831,180.760 227.600,181.546 227.600 C 181.957 227.600,183.098 228.497,184.080 229.593 C 185.469 231.142,186.349 231.731,188.033 232.234 C 191.351 233.226,193.231 234.048,195.189 235.361 C 197.813 237.121,203.180 237.968,211.800 237.983 C 219.673 237.996,227.600 236.963,227.600 235.924 C 227.600 235.746,227.885 235.600,228.233 235.600 C 228.581 235.600,229.940 234.970,231.254 234.200 C 232.568 233.430,234.026 232.800,234.495 232.800 C 235.871 232.800,238.620 231.280,240.682 229.377 C 241.737 228.404,242.825 227.607,243.100 227.604 C 243.375 227.602,243.600 227.441,243.600 227.247 C 243.600 227.053,244.403 226.372,245.384 225.734 C 246.460 225.034,247.805 223.587,248.775 222.087 C 249.659 220.719,250.566 219.600,250.791 219.600 C 251.016 219.600,251.200 219.335,251.200 219.012 C 251.200 218.689,251.726 218.035,252.369 217.560 C 253.272 216.892,253.782 215.908,254.605 213.248 C 255.191 211.351,255.835 209.629,256.036 209.420 C 256.236 209.211,256.400 207.548,256.400 205.725 L 256.400 202.410 254.808 201.405 C 252.883 200.190,253.016 200.184,250.843 201.581 " stroke="none" fill="#414446" fill-rule="evenodd"></path><path id="path2" d="M201.000 101.637 C 194.244 102.088,189.503 102.767,188.800 103.383 C 187.590 104.444,183.457 106.400,182.425 106.400 C 180.428 106.400,172.868 108.205,172.400 108.793 C 171.476 109.956,168.010 112.012,166.292 112.416 C 162.981 113.195,161.386 113.951,160.484 115.172 C 159.518 116.479,156.892 118.040,154.096 118.968 C 152.516 119.493,152.068 119.857,151.679 120.932 C 151.221 122.200,149.197 123.600,147.822 123.600 C 147.188 123.600,145.369 125.638,145.019 126.739 C 144.889 127.148,144.112 127.820,143.292 128.232 C 141.730 129.017,139.600 131.023,139.600 131.708 C 139.600 132.250,137.995 133.702,136.813 134.229 C 136.228 134.490,135.291 135.745,134.425 137.427 C 133.324 139.567,132.728 140.285,131.800 140.592 C 130.402 141.055,130.015 141.492,130.006 142.615 C 130.003 143.064,129.620 144.144,129.156 145.015 C 128.691 145.887,128.050 147.091,127.731 147.690 C 127.412 148.290,126.757 149.100,126.276 149.490 C 125.270 150.306,124.000 152.844,124.000 154.039 C 124.000 154.782,123.272 156.824,121.753 160.341 C 121.435 161.078,120.840 161.769,120.432 161.876 C 119.129 162.217,118.664 166.255,117.173 190.192 C 116.686 198.011,115.941 202.820,114.991 204.269 C 114.282 205.353,113.866 207.708,113.204 214.400 C 112.339 223.152,112.089 224.121,110.153 226.230 C 108.753 227.754,108.238 228.745,107.583 231.174 C 106.521 235.111,106.385 235.294,104.350 235.569 C 102.836 235.772,102.602 235.943,102.383 237.000 C 101.822 239.703,100.906 240.800,99.209 240.800 C 97.106 240.800,95.838 241.433,95.348 242.729 C 94.786 244.215,91.516 245.793,88.130 246.211 C 86.179 246.452,84.927 247.423,86.107 247.779 C 86.378 247.862,87.459 248.165,88.508 248.454 C 90.319 248.953,90.448 249.082,91.059 251.020 L 91.702 253.061 94.069 253.550 C 95.931 253.935,96.529 254.246,96.878 255.012 C 97.122 255.547,97.635 256.084,98.018 256.206 C 98.401 256.327,98.931 256.950,99.196 257.590 C 99.533 258.405,100.056 258.834,100.939 259.023 C 101.633 259.171,102.380 259.428,102.600 259.594 C 102.820 259.760,103.657 260.014,104.461 260.159 C 106.090 260.452,107.200 261.760,107.200 263.386 C 107.200 264.310,107.351 264.401,108.900 264.414 C 112.024 264.439,116.898 266.395,117.665 267.932 C 118.550 269.704,118.242 269.548,122.114 270.175 C 124.429 270.550,126.361 270.625,128.070 270.407 C 132.135 269.889,132.687 269.663,132.935 268.426 C 133.405 266.076,136.188 265.400,145.400 265.400 C 154.455 265.400,156.067 265.791,157.150 268.249 C 157.649 269.380,157.947 269.539,160.296 269.928 C 161.723 270.165,163.186 270.616,163.546 270.930 C 163.906 271.244,164.868 271.737,165.685 272.026 C 166.803 272.420,167.231 272.831,167.420 273.692 C 167.558 274.321,168.105 275.269,168.636 275.799 C 169.166 276.330,169.600 277.042,169.600 277.382 C 169.600 277.722,169.915 278.331,170.300 278.735 C 170.685 279.139,171.200 279.814,171.443 280.235 C 171.870 280.971,172.699 281.004,193.143 281.117 L 214.400 281.233 214.402 280.117 C 214.409 276.713,215.647 275.200,218.426 275.200 C 219.491 275.200,219.600 275.076,219.600 273.858 C 219.600 271.670,220.887 270.671,224.476 270.070 C 227.344 269.591,227.559 269.485,227.676 268.504 C 227.962 266.086,230.684 265.400,240.000 265.400 C 249.184 265.400,250.523 265.732,251.323 268.204 C 251.535 268.862,251.753 269.453,251.805 269.517 C 252.046 269.811,258.866 270.617,259.019 270.370 C 259.114 270.216,259.823 269.972,260.595 269.827 C 261.601 269.639,262.171 269.230,262.609 268.382 C 262.945 267.732,263.443 267.200,263.715 267.200 C 263.988 267.200,264.388 266.800,264.605 266.310 C 264.992 265.439,265.676 265.191,269.300 264.606 C 270.545 264.405,270.800 264.202,270.800 263.413 C 270.800 262.397,272.571 260.000,273.322 260.000 C 274.951 260.000,277.224 258.617,277.521 257.445 C 277.721 256.650,278.263 255.983,279.018 255.599 C 281.223 254.478,282.800 253.148,282.800 252.408 C 282.800 251.676,284.907 249.600,285.650 249.600 C 286.396 249.600,287.975 247.391,287.987 246.329 C 288.002 245.073,289.645 243.600,291.030 243.600 C 292.194 243.600,292.434 243.203,293.209 240.000 C 293.829 237.438,293.864 237.391,295.628 236.820 C 297.471 236.223,298.800 233.172,298.800 229.537 C 298.800 228.131,300.356 225.921,301.854 225.200 C 303.218 224.543,303.012 225.379,304.415 214.800 C 304.663 212.930,305.220 209.780,305.653 207.800 C 306.087 205.820,306.522 203.809,306.620 203.331 C 306.719 202.853,307.263 201.911,307.829 201.238 L 308.859 200.014 308.852 191.498 L 308.845 182.982 307.740 181.004 C 307.132 179.916,306.513 178.210,306.364 177.213 C 306.216 176.216,305.623 173.348,305.047 170.839 C 304.471 168.331,304.000 165.636,304.000 164.851 C 304.000 162.358,303.093 159.280,302.214 158.786 C 300.839 158.014,299.646 156.197,299.171 154.152 C 297.990 149.061,297.463 147.925,295.800 146.883 C 293.846 145.658,293.735 145.496,293.417 143.374 C 293.139 141.520,292.432 140.555,290.599 139.528 C 289.940 139.159,288.988 138.083,288.485 137.138 C 287.569 135.415,286.625 134.282,284.525 132.383 C 283.906 131.823,282.680 130.519,281.800 129.486 C 280.920 128.452,280.046 127.605,279.857 127.603 C 279.668 127.601,278.555 126.626,277.383 125.435 C 276.212 124.245,274.634 123.047,273.877 122.773 C 272.932 122.432,272.344 121.877,272.001 121.002 C 271.492 119.706,270.682 119.168,267.000 117.682 C 265.900 117.239,264.813 116.518,264.584 116.080 C 263.815 114.609,263.217 114.132,261.505 113.623 C 260.567 113.345,259.620 112.977,259.400 112.805 C 259.180 112.633,258.370 112.370,257.600 112.221 C 255.687 111.851,254.000 111.172,254.000 110.772 C 254.000 109.206,251.230 108.001,245.200 106.942 C 240.352 106.090,238.925 105.607,237.054 104.183 C 233.826 101.726,217.217 100.553,201.000 101.637 M184.400 150.992 C 185.610 151.312,186.872 151.907,187.205 152.315 C 187.538 152.722,189.106 153.563,190.689 154.184 C 194.889 155.832,197.200 159.841,197.200 165.479 C 197.200 166.426,197.362 167.200,197.561 167.200 C 198.406 167.200,198.761 169.511,198.019 170.183 C 197.575 170.584,197.022 172.233,196.565 174.516 C 195.739 178.642,194.499 180.400,192.416 180.400 C 191.525 180.400,191.247 180.640,190.955 181.659 C 189.691 186.066,174.577 186.501,172.396 182.193 C 171.722 180.864,168.473 177.601,167.819 177.599 C 167.589 177.598,167.087 176.833,166.705 175.899 C 164.244 169.880,165.288 159.682,168.430 159.054 C 169.319 158.876,169.600 158.597,169.600 157.895 C 169.600 156.155,171.557 154.438,174.400 153.684 C 176.280 153.186,177.105 152.756,177.380 152.132 C 178.086 150.528,180.912 150.069,184.400 150.992 M245.391 150.975 C 246.724 151.288,248.059 151.879,248.408 152.310 C 248.752 152.735,249.746 153.318,250.617 153.605 C 253.727 154.631,256.400 156.447,256.400 157.536 C 256.400 157.872,256.754 158.880,257.188 159.774 C 257.621 160.669,258.157 162.571,258.380 164.001 C 258.603 165.430,258.940 167.230,259.129 168.000 C 259.367 168.965,259.314 169.711,258.960 170.400 C 258.678 170.950,258.163 172.752,257.817 174.404 C 256.951 178.539,256.052 179.918,254.010 180.245 C 252.885 180.425,252.400 180.701,252.400 181.162 C 252.400 186.166,234.564 186.527,232.986 181.555 C 232.696 180.643,229.642 177.600,229.016 177.600 C 225.494 177.600,225.719 160.695,229.259 159.290 C 230.320 158.869,230.778 158.411,230.938 157.611 C 231.249 156.054,233.091 154.000,234.176 154.000 C 235.568 154.000,237.721 153.139,238.394 152.313 C 239.918 150.442,241.688 150.104,245.391 150.975 M177.335 194.421 C 178.370 195.234,180.400 198.788,180.400 199.784 C 180.400 200.070,180.940 200.527,181.600 200.800 C 182.260 201.073,182.800 201.521,182.800 201.795 C 182.800 202.068,183.145 202.731,183.567 203.267 C 183.989 203.804,184.454 204.953,184.600 205.821 C 185.202 209.389,185.952 211.006,187.229 211.488 C 188.002 211.780,188.620 212.399,188.913 213.175 C 189.167 213.849,189.578 214.400,189.826 214.400 C 190.073 214.400,190.602 214.760,191.000 215.200 C 191.398 215.640,191.973 216.000,192.278 216.000 C 193.659 216.000,196.000 217.624,196.000 218.581 C 196.000 219.716,196.162 219.778,201.200 220.587 C 211.406 222.225,226.487 220.984,228.727 218.322 C 229.246 217.705,229.882 217.200,230.139 217.200 C 230.397 217.200,230.815 216.868,231.068 216.462 C 231.646 215.537,233.997 214.400,235.332 214.400 C 236.212 214.400,236.425 214.118,236.976 212.225 C 237.580 210.146,238.456 208.800,239.206 208.800 C 239.398 208.800,239.874 208.260,240.264 207.600 C 240.654 206.940,241.172 206.400,241.416 206.400 C 241.660 206.400,242.278 204.708,242.790 202.640 C 243.678 199.055,243.793 198.839,245.259 198.015 C 246.105 197.539,247.259 196.545,247.823 195.806 C 250.122 192.791,255.665 192.869,258.025 195.951 C 258.468 196.528,259.484 197.360,260.284 197.800 C 264.371 200.046,263.399 217.200,259.185 217.200 C 258.709 217.200,258.307 217.879,257.823 219.500 C 256.419 224.200,255.976 224.800,253.902 224.800 C 253.096 224.800,252.873 225.105,252.439 226.800 C 251.832 229.165,250.493 230.400,248.534 230.400 C 247.161 230.400,247.062 230.509,246.623 232.510 C 246.279 234.078,245.095 235.115,243.322 235.401 C 240.435 235.866,240.000 236.017,240.000 236.554 C 240.000 238.387,236.104 240.800,233.144 240.800 C 229.637 240.800,225.947 241.679,225.520 242.616 C 223.640 246.741,199.675 246.739,198.639 242.613 C 198.417 241.727,194.436 240.790,190.926 240.797 C 188.486 240.802,186.105 239.285,184.866 236.936 C 184.566 236.367,183.863 235.980,182.807 235.801 C 181.926 235.652,181.115 235.386,181.007 235.211 C 180.898 235.035,180.194 234.775,179.443 234.635 C 178.005 234.365,176.800 233.009,176.800 231.660 C 176.800 230.842,175.639 229.909,174.000 229.412 C 172.731 229.026,171.200 227.639,171.200 226.874 C 171.200 225.517,169.421 222.744,168.416 222.534 C 167.053 222.248,164.959 217.851,164.576 214.472 C 164.355 212.515,164.110 211.902,163.352 211.405 C 160.662 209.643,160.324 202.458,162.827 200.250 C 163.607 199.562,164.549 198.344,164.921 197.543 C 166.693 193.723,174.085 191.864,177.335 194.421 " stroke="none" fill="#e6eef1" fill-rule="evenodd"></path><path id="path3" d="M200.200 82.802 C 193.483 83.083,190.319 83.559,187.000 84.786 C 183.218 86.185,177.103 88.000,176.173 88.000 C 174.592 88.000,168.997 89.942,167.356 91.060 C 165.409 92.388,162.827 93.580,161.874 93.591 C 160.543 93.607,156.624 95.660,154.911 97.239 C 153.980 98.098,152.835 98.800,152.366 98.800 C 151.228 98.800,146.051 101.652,145.911 102.357 C 145.850 102.663,144.180 103.846,142.200 104.985 C 139.913 106.302,138.410 107.448,138.078 108.129 C 137.791 108.718,137.374 109.200,137.150 109.200 C 136.319 109.200,133.090 111.740,132.370 112.961 C 131.960 113.656,130.805 114.743,129.804 115.375 C 128.804 116.008,127.371 117.379,126.622 118.423 C 125.872 119.466,124.692 120.653,124.000 121.060 C 123.307 121.467,122.106 122.843,121.331 124.117 C 120.556 125.392,119.398 126.821,118.759 127.293 C 118.121 127.766,117.239 128.893,116.801 129.799 C 116.362 130.704,115.643 131.833,115.202 132.306 C 114.761 132.779,114.400 133.333,114.400 133.537 C 114.400 133.741,113.968 134.191,113.439 134.538 C 112.463 135.177,109.737 140.417,109.335 142.426 C 109.214 143.031,108.504 144.118,107.757 144.841 C 107.011 145.565,106.400 146.369,106.400 146.629 C 106.400 146.888,105.973 148.068,105.452 149.250 C 104.931 150.433,104.293 152.390,104.036 153.600 C 103.778 154.810,103.101 156.474,102.530 157.299 C 101.960 158.123,101.343 159.473,101.160 160.299 C 99.626 167.210,99.190 170.085,98.990 174.600 C 98.696 181.243,97.772 188.919,96.778 192.976 C 96.350 194.723,96.000 197.008,96.000 198.054 C 96.000 200.606,94.257 212.433,93.129 217.529 C 92.709 219.430,92.409 219.854,90.340 221.480 C 89.065 222.481,87.914 223.640,87.783 224.055 C 87.307 225.554,84.523 226.371,77.000 227.219 C 73.659 227.595,72.781 227.845,71.674 228.735 C 70.945 229.321,69.685 230.307,68.874 230.927 C 66.290 232.903,64.408 236.406,64.402 239.251 C 64.401 239.829,64.130 240.526,63.800 240.800 C 63.049 241.423,63.049 241.902,63.802 243.346 C 64.131 243.976,64.400 245.165,64.400 245.988 C 64.400 248.337,67.024 253.088,69.923 255.987 C 71.285 257.349,72.400 258.698,72.400 258.983 C 72.400 259.269,73.570 260.530,75.000 261.785 C 76.430 263.040,77.600 264.289,77.600 264.559 C 77.600 265.213,79.586 267.046,80.638 267.362 C 81.099 267.501,82.420 268.691,83.574 270.007 C 84.727 271.323,85.925 272.400,86.236 272.400 C 86.546 272.400,87.148 272.748,87.573 273.173 C 87.999 273.599,88.854 274.273,89.473 274.671 C 90.093 275.070,90.908 275.776,91.283 276.240 C 91.659 276.704,93.542 277.861,95.466 278.810 C 97.391 279.759,99.394 281.045,99.918 281.668 C 100.442 282.290,101.031 282.800,101.226 282.800 C 101.420 282.800,102.729 283.326,104.133 283.969 C 105.537 284.612,107.398 285.330,108.269 285.565 C 109.140 285.799,110.258 286.423,110.754 286.951 C 111.250 287.479,112.140 288.008,112.732 288.126 C 113.324 288.245,114.564 289.061,115.488 289.939 L 117.168 291.537 116.938 296.869 C 116.667 303.141,117.194 307.690,118.362 309.175 C 119.983 311.234,121.096 314.224,121.272 316.991 C 121.475 320.182,120.764 320.925,117.043 321.404 C 112.671 321.966,109.571 324.017,110.182 325.942 C 110.686 327.530,113.029 329.945,114.384 330.273 C 114.943 330.408,116.030 331.004,116.800 331.597 C 119.138 333.396,126.494 334.949,135.845 335.617 C 141.365 336.012,145.064 336.623,145.876 337.276 C 146.137 337.486,147.937 337.818,149.876 338.014 C 151.814 338.210,154.532 338.647,155.915 338.984 C 157.793 339.442,158.856 339.499,160.115 339.209 C 162.757 338.599,165.485 338.732,167.526 339.570 C 170.817 340.922,188.847 341.773,198.200 341.018 C 201.387 340.760,203.054 340.843,206.400 341.425 C 211.421 342.298,217.676 342.319,221.000 341.476 C 222.320 341.140,225.290 340.756,227.600 340.622 C 240.534 339.868,249.702 338.436,251.984 336.812 C 252.718 336.290,254.111 336.015,257.000 335.822 C 266.032 335.221,272.895 333.554,274.578 331.554 C 275.074 330.964,275.817 330.417,276.229 330.338 C 277.125 330.165,278.784 327.389,278.793 326.047 C 278.815 322.912,273.054 320.000,266.829 320.000 C 263.655 320.000,263.897 320.323,263.987 316.200 C 264.036 313.988,264.150 313.703,265.440 312.566 C 267.572 310.685,268.994 300.004,267.831 294.601 L 267.229 291.802 268.663 288.900 C 269.742 286.715,270.356 285.922,271.148 285.693 C 273.179 285.103,277.925 282.421,278.716 281.416 C 279.156 280.857,279.638 280.400,279.788 280.400 C 280.467 280.400,285.600 276.757,285.600 276.275 C 285.600 275.978,286.511 275.145,287.623 274.424 C 290.890 272.307,297.866 265.705,301.172 261.600 C 301.970 260.610,303.404 258.952,304.360 257.915 C 305.315 256.878,306.504 255.150,307.002 254.075 C 307.500 253.000,308.456 251.730,309.126 251.253 C 310.517 250.262,311.993 248.064,312.014 246.953 C 312.022 246.539,312.917 244.940,314.002 243.400 C 316.278 240.170,316.830 239.103,317.927 235.800 C 319.214 231.926,319.760 230.644,320.448 229.880 C 321.474 228.741,322.286 226.444,322.809 223.200 C 323.235 220.561,324.187 216.282,325.658 210.400 C 327.033 204.901,327.263 202.863,327.468 194.400 C 327.687 185.346,327.096 177.804,325.938 174.884 C 325.472 173.706,324.530 169.697,322.957 162.200 C 322.248 158.817,321.611 156.869,320.799 155.600 C 319.691 153.867,317.525 148.533,317.040 146.341 C 316.911 145.759,316.149 144.499,315.348 143.541 C 314.546 142.583,313.102 140.148,312.138 138.130 C 311.174 136.111,309.892 134.041,309.287 133.530 C 307.888 132.346,306.588 130.483,306.265 129.200 C 306.126 128.650,305.122 127.480,304.033 126.600 C 302.945 125.720,301.834 124.460,301.565 123.800 C 300.978 122.363,298.449 119.600,297.719 119.600 C 297.433 119.600,297.200 119.435,297.200 119.232 C 297.200 118.625,293.162 114.400,292.582 114.400 C 292.287 114.400,291.720 113.849,291.323 113.176 C 290.435 111.672,287.333 109.200,286.334 109.200 C 285.930 109.200,285.600 108.956,285.600 108.658 C 285.600 108.155,284.459 106.824,283.092 105.735 C 282.770 105.479,281.677 104.890,280.661 104.428 C 279.645 103.965,278.438 103.078,277.979 102.458 C 277.197 101.400,273.713 99.380,271.000 98.412 C 270.340 98.176,269.157 97.376,268.371 96.633 C 266.892 95.236,264.657 94.186,260.710 93.034 C 259.451 92.666,257.921 91.949,257.310 91.439 C 255.334 89.790,250.687 88.000,248.382 88.000 C 247.382 88.000,242.451 86.628,240.600 85.834 C 235.808 83.780,232.731 83.225,223.800 82.801 C 215.105 82.389,210.052 82.389,200.200 82.802 M230.948 86.900 C 232.240 87.505,233.591 88.000,233.951 88.000 C 234.657 88.000,243.633 89.973,244.023 90.214 C 244.152 90.294,245.380 90.540,246.750 90.761 C 248.121 90.982,249.817 91.461,250.521 91.826 C 254.697 93.994,257.187 95.146,258.600 95.562 C 263.054 96.874,264.400 97.410,264.400 97.873 C 264.400 98.151,264.985 98.679,265.700 99.046 C 266.415 99.412,267.090 99.840,267.200 99.997 C 267.310 100.154,268.361 100.598,269.537 100.985 C 270.712 101.372,272.265 102.209,272.989 102.844 C 273.713 103.480,274.406 104.000,274.528 104.000 C 274.650 104.000,275.303 104.504,275.977 105.120 C 276.652 105.737,277.878 106.472,278.702 106.755 C 279.592 107.060,281.111 108.229,282.445 109.634 C 283.824 111.088,285.020 112.000,285.547 112.000 C 286.114 112.000,286.980 112.746,288.102 114.200 C 289.036 115.409,290.386 116.678,291.102 117.019 C 291.818 117.360,293.144 118.641,294.048 119.865 C 294.952 121.088,296.206 122.385,296.836 122.745 C 297.465 123.105,298.434 124.210,298.989 125.200 C 300.230 127.413,301.036 128.360,302.648 129.499 C 303.334 129.984,304.001 130.880,304.130 131.490 C 304.259 132.101,305.348 133.860,306.551 135.400 C 308.498 137.894,312.000 144.168,312.000 145.163 C 312.000 145.371,312.490 145.927,313.088 146.398 C 313.695 146.875,314.389 147.994,314.657 148.927 C 315.829 153.003,317.357 157.212,318.605 159.800 C 320.524 163.781,321.583 169.154,322.977 182.000 C 324.481 195.855,321.913 219.919,318.327 225.578 C 317.707 226.556,317.200 227.609,317.200 227.918 C 317.200 229.760,314.193 237.469,313.139 238.329 C 312.512 238.840,312.000 239.510,312.000 239.819 C 312.000 240.127,311.396 241.509,310.658 242.890 C 309.920 244.270,309.198 245.885,309.055 246.479 C 308.912 247.072,308.281 247.861,307.653 248.232 C 306.990 248.624,305.884 250.067,305.019 251.668 C 304.199 253.187,302.986 254.828,302.324 255.315 C 301.662 255.802,300.774 256.875,300.352 257.700 C 299.929 258.525,299.407 259.200,299.192 259.200 C 298.976 259.200,298.800 259.457,298.800 259.771 C 298.800 260.085,298.305 260.713,297.700 261.167 C 296.217 262.279,296.089 262.404,293.837 264.967 C 292.757 266.195,291.668 267.200,291.416 267.200 C 291.164 267.200,290.028 268.197,288.891 269.415 C 287.755 270.634,286.179 271.900,285.390 272.230 C 284.556 272.578,283.611 273.413,283.133 274.224 C 282.310 275.618,279.480 277.600,278.311 277.600 C 277.971 277.600,277.070 278.275,276.309 279.100 C 275.015 280.502,271.697 282.471,269.741 282.997 C 266.289 283.925,264.071 289.272,264.829 294.840 C 265.697 301.218,264.611 308.001,262.510 309.320 C 262.229 309.496,262.000 309.881,262.000 310.176 C 262.000 310.471,261.370 311.987,260.600 313.545 C 259.830 315.103,259.200 316.484,259.200 316.615 C 259.200 316.745,258.665 317.302,258.011 317.852 C 257.356 318.403,256.413 319.580,255.913 320.469 C 254.285 323.366,244.653 327.180,238.927 327.194 C 233.225 327.208,222.400 321.651,222.400 318.710 C 222.400 318.372,221.808 317.644,221.085 317.092 C 219.855 316.154,217.200 311.501,217.200 310.284 C 217.200 309.651,215.569 305.501,214.652 303.800 C 214.296 303.140,214.002 302.420,213.999 302.200 C 213.981 301.002,211.167 298.872,209.312 298.651 C 204.613 298.093,176.792 297.898,174.962 298.411 C 172.374 299.135,170.743 302.022,169.708 307.711 C 169.597 308.322,169.197 308.988,168.819 309.190 C 168.441 309.392,167.471 311.152,166.663 313.100 C 165.655 315.533,164.694 317.131,163.597 318.203 C 162.719 319.060,162.000 319.939,162.000 320.155 C 162.000 320.734,160.341 322.400,159.764 322.400 C 159.490 322.400,159.207 322.546,159.133 322.724 C 158.878 323.343,152.584 325.984,150.000 326.557 C 145.109 327.640,138.784 326.521,133.933 323.713 C 132.686 322.991,131.426 322.398,131.133 322.395 C 130.664 322.391,127.600 318.438,127.600 317.838 C 127.600 317.711,127.095 317.110,126.479 316.503 C 125.149 315.195,122.962 310.707,122.373 308.079 C 122.143 307.053,121.629 305.477,121.231 304.577 C 120.145 302.121,119.835 297.516,120.551 294.463 C 121.127 292.010,121.071 290.800,120.384 290.800 C 120.203 290.800,119.937 290.431,119.794 289.980 C 119.471 288.965,117.126 286.585,115.451 285.574 C 112.555 283.827,110.372 282.800,109.552 282.800 C 108.215 282.800,104.422 280.866,102.378 279.143 C 101.372 278.294,100.350 277.600,100.107 277.600 C 98.916 277.600,96.001 275.916,94.319 274.256 C 93.284 273.235,92.204 272.394,91.919 272.387 C 91.415 272.374,89.463 270.844,84.404 266.500 C 83.059 265.345,81.608 264.400,81.179 264.400 C 80.693 264.400,80.400 264.127,80.400 263.673 C 80.400 263.273,79.770 262.238,79.000 261.373 C 78.230 260.508,77.600 259.665,77.600 259.500 C 77.600 259.335,77.343 259.200,77.029 259.200 C 76.715 259.200,76.087 258.705,75.633 258.100 C 75.180 257.495,74.668 256.820,74.497 256.600 C 70.990 252.104,70.244 251.200,70.041 251.199 C 68.521 251.195,67.400 247.255,67.400 241.916 L 67.400 236.431 68.901 235.016 C 69.726 234.237,70.585 233.600,70.810 233.600 C 71.034 233.600,72.020 232.860,73.001 231.956 C 74.771 230.325,74.822 230.308,79.492 229.773 C 87.468 228.860,89.741 228.069,90.550 225.927 C 90.784 225.307,91.192 224.800,91.457 224.800 C 92.878 224.800,96.003 220.028,95.998 217.867 C 95.996 216.956,96.924 213.924,97.895 211.668 C 98.990 209.123,101.200 190.515,101.200 183.839 C 101.200 177.038,102.270 168.706,103.429 166.485 C 103.740 165.888,103.996 165.185,103.998 164.923 C 103.999 164.660,104.540 162.834,105.200 160.864 C 105.860 158.894,106.400 156.846,106.400 156.312 C 106.400 154.566,107.698 151.454,109.674 148.459 C 110.741 146.842,111.801 144.682,112.030 143.659 C 112.483 141.625,112.912 140.845,115.307 137.693 C 116.890 135.610,117.795 134.174,119.048 131.759 C 119.402 131.077,120.200 130.218,120.822 129.851 C 121.444 129.483,122.364 128.332,122.867 127.291 C 123.370 126.251,124.416 124.819,125.191 124.110 C 127.964 121.570,128.614 120.891,129.591 119.509 C 130.135 118.738,131.057 117.927,131.638 117.708 C 132.220 117.489,133.457 116.340,134.388 115.155 C 135.490 113.752,136.790 112.651,138.114 112.000 C 139.233 111.450,140.340 110.648,140.574 110.217 C 141.167 109.127,141.629 108.713,143.218 107.849 C 147.332 105.612,148.240 105.061,148.644 104.555 C 148.888 104.250,149.212 104.000,149.363 104.000 C 149.514 104.000,150.035 103.577,150.519 103.061 C 151.587 101.923,152.590 101.390,154.266 101.073 C 154.962 100.941,156.557 100.151,157.810 99.317 C 161.977 96.543,162.393 96.326,164.702 95.723 C 165.964 95.393,167.706 94.781,168.573 94.362 C 169.441 93.943,170.452 93.600,170.821 93.600 C 171.190 93.600,171.921 93.267,172.446 92.860 C 173.952 91.691,175.036 91.211,177.089 90.806 C 184.044 89.435,192.219 87.476,194.600 86.611 L 197.400 85.595 213.000 85.697 L 228.600 85.800 230.948 86.900 M205.000 95.188 C 203.460 95.367,201.030 95.641,199.600 95.797 C 198.170 95.953,196.539 96.403,195.976 96.796 C 194.752 97.652,191.947 98.250,186.793 98.756 C 181.858 99.240,175.200 101.532,175.200 102.745 C 175.200 102.925,174.165 103.302,172.900 103.582 C 167.731 104.728,165.450 105.732,163.223 107.844 C 162.440 108.586,161.530 109.195,161.200 109.197 C 159.083 109.210,154.185 112.010,153.834 113.407 C 153.671 114.055,153.304 114.400,152.776 114.400 C 151.778 114.400,149.130 115.721,148.424 116.571 C 148.137 116.917,147.734 117.200,147.529 117.200 C 147.323 117.200,146.224 118.117,145.086 119.237 C 143.948 120.357,142.248 121.724,141.308 122.275 C 140.369 122.826,139.600 123.397,139.600 123.546 C 139.600 124.081,136.299 127.600,135.797 127.600 C 135.224 127.600,132.800 130.205,132.800 130.821 C 132.800 131.037,131.693 132.377,130.340 133.800 C 127.816 136.455,127.491 136.909,125.917 140.000 C 125.413 140.990,124.820 141.919,124.600 142.065 C 123.230 142.973,122.426 144.061,121.694 146.000 C 120.624 148.834,119.683 150.703,118.571 152.200 C 116.738 154.669,114.400 161.474,114.400 164.339 C 114.400 164.973,114.066 165.921,113.658 166.446 C 112.125 168.418,111.503 172.205,110.611 185.000 C 110.289 189.620,109.927 194.300,109.808 195.400 C 109.689 196.500,109.419 199.880,109.209 202.912 C 108.850 208.082,107.692 213.606,106.763 214.580 C 106.563 214.789,106.398 215.329,106.395 215.780 C 106.392 216.231,106.021 217.770,105.571 219.200 C 105.121 220.630,104.509 222.953,104.212 224.362 C 103.781 226.406,103.422 227.119,102.436 227.891 C 101.756 228.423,101.197 229.070,101.194 229.329 C 101.188 229.833,97.784 233.542,95.800 235.207 C 93.203 237.387,92.053 238.000,90.538 238.014 C 86.218 238.052,78.898 240.737,79.123 242.200 C 79.822 246.735,82.184 251.078,84.800 252.642 C 85.130 252.839,86.086 253.854,86.925 254.898 C 87.764 255.942,89.242 257.260,90.211 257.827 C 91.179 258.395,92.340 259.456,92.791 260.186 C 93.331 261.060,94.497 261.953,96.206 262.803 C 97.633 263.512,98.800 264.308,98.800 264.572 C 98.800 265.187,100.892 267.200,101.532 267.200 C 102.426 267.200,107.383 269.899,108.600 271.049 C 109.260 271.672,110.880 272.577,112.200 273.059 C 113.520 273.541,115.548 274.281,116.707 274.704 C 117.865 275.127,119.241 275.875,119.765 276.367 C 122.661 279.088,132.045 278.899,132.980 276.100 C 134.467 271.645,157.917 272.142,159.049 276.652 C 159.176 277.158,159.590 277.670,159.969 277.790 C 160.349 277.911,161.006 278.323,161.429 278.707 C 161.853 279.092,162.690 279.623,163.289 279.889 C 163.888 280.155,164.626 280.967,164.929 281.693 C 165.627 283.363,168.147 285.600,169.330 285.600 C 169.826 285.600,171.305 285.888,172.616 286.239 C 174.260 286.680,177.422 286.934,182.800 287.058 C 187.090 287.156,194.650 287.364,199.600 287.520 C 209.656 287.836,213.669 287.531,214.839 286.361 C 215.257 285.943,215.895 285.600,216.255 285.600 C 216.616 285.600,218.620 283.882,220.710 281.782 C 222.800 279.682,225.014 277.703,225.630 277.384 C 226.247 277.065,226.987 276.489,227.276 276.102 C 230.717 271.493,246.093 271.767,252.670 276.555 C 255.256 278.438,260.845 278.157,261.952 276.090 C 262.181 275.662,263.320 274.916,264.484 274.432 C 268.096 272.930,269.331 272.244,270.790 270.929 C 272.968 268.965,275.529 267.200,276.200 267.200 C 276.535 267.200,277.121 266.812,277.504 266.337 C 279.522 263.836,280.949 262.400,281.416 262.400 C 282.245 262.400,284.366 260.429,285.122 258.956 C 285.549 258.123,286.488 257.264,287.581 256.704 C 288.985 255.986,289.586 255.326,290.500 253.500 C 291.279 251.941,291.889 251.200,292.391 251.200 C 293.226 251.200,295.334 248.724,295.797 247.200 C 295.964 246.650,296.950 245.295,297.989 244.189 C 300.102 241.939,300.674 241.023,301.636 238.355 C 302.002 237.340,303.132 235.490,304.146 234.246 C 305.160 233.001,306.099 231.491,306.233 230.891 C 307.093 227.038,307.963 224.522,309.662 220.981 C 311.280 217.609,311.652 216.386,311.976 213.381 C 312.189 211.411,312.680 207.640,313.068 205.000 C 314.502 195.232,313.886 180.078,311.570 168.174 C 311.220 166.377,309.517 162.536,308.831 162.000 C 308.518 161.755,306.396 155.201,306.398 154.484 C 306.401 153.573,304.868 150.930,303.602 149.664 C 302.355 148.416,301.200 146.160,301.200 144.970 C 301.200 144.321,299.425 141.861,297.743 140.180 C 297.264 139.700,296.469 138.518,295.978 137.554 C 294.721 135.086,293.196 133.179,292.167 132.788 C 291.684 132.604,290.714 131.447,290.010 130.217 C 289.154 128.722,288.245 127.729,287.265 127.220 C 286.456 126.800,285.206 125.574,284.473 124.481 C 283.743 123.394,282.697 122.299,282.148 122.049 C 280.528 121.311,278.388 119.482,277.762 118.300 C 277.442 117.695,276.978 117.200,276.731 117.200 C 276.485 117.200,275.334 116.570,274.174 115.800 C 273.014 115.030,271.825 114.395,271.532 114.390 C 271.239 114.384,270.166 113.529,269.147 112.488 C 267.800 111.114,266.652 110.388,264.947 109.830 C 263.639 109.402,261.980 108.482,261.200 107.751 C 259.576 106.231,255.944 104.527,253.499 104.140 C 251.238 103.781,249.553 103.039,248.704 102.029 C 248.321 101.573,247.682 101.200,247.284 101.200 C 246.886 101.200,246.389 101.032,246.180 100.826 C 245.604 100.258,240.006 98.800,238.408 98.801 C 236.054 98.802,229.887 97.552,228.400 96.772 C 225.624 95.316,211.889 94.386,205.000 95.188 M223.800 99.179 C 239.144 101.500,241.551 102.031,243.231 103.462 C 243.579 103.758,244.119 104.001,244.431 104.002 C 244.744 104.003,246.506 104.543,248.346 105.202 C 250.186 105.861,252.021 106.400,252.423 106.400 C 253.149 106.400,255.999 107.880,256.419 108.475 C 256.824 109.049,262.733 112.000,263.477 112.000 C 263.882 112.000,265.112 112.765,266.209 113.700 C 268.774 115.885,270.652 117.200,271.207 117.200 C 271.702 117.200,274.838 119.549,275.301 120.267 C 275.467 120.524,276.547 121.409,277.701 122.234 C 280.316 124.103,282.800 126.423,282.800 126.995 C 282.800 127.233,283.295 127.725,283.900 128.088 C 285.440 129.012,288.000 131.587,288.000 132.212 C 288.000 132.499,288.135 132.793,288.300 132.867 C 289.045 133.198,293.235 138.152,293.829 139.405 C 294.193 140.172,294.629 140.800,294.797 140.800 C 294.965 140.800,295.345 141.385,295.641 142.100 C 295.937 142.815,296.644 143.792,297.213 144.272 C 297.783 144.751,298.940 146.731,299.785 148.672 C 300.631 150.612,301.855 152.889,302.506 153.732 C 303.666 155.234,306.372 162.567,306.390 164.259 C 306.396 164.731,307.011 166.351,307.757 167.859 C 310.786 173.975,312.056 190.926,310.405 203.200 C 309.105 212.864,308.918 213.794,307.848 215.905 C 307.281 217.025,306.628 218.809,306.397 219.870 C 305.465 224.155,303.467 229.725,302.427 230.938 C 301.832 231.632,300.727 233.628,299.972 235.374 C 299.218 237.119,298.015 239.170,297.300 239.930 C 296.585 240.690,296.000 241.442,296.000 241.601 C 296.000 241.760,295.460 242.569,294.800 243.400 C 294.140 244.231,293.600 245.159,293.600 245.463 C 293.600 245.768,292.340 247.245,290.800 248.746 C 289.260 250.246,288.000 251.768,288.000 252.128 C 288.000 252.487,286.844 253.640,285.430 254.691 C 284.017 255.741,282.757 256.990,282.631 257.466 C 282.503 257.952,280.996 259.317,279.201 260.575 C 277.440 261.809,276.000 262.980,276.000 263.178 C 276.000 263.558,270.722 267.200,270.172 267.200 C 269.996 267.200,268.986 267.930,267.928 268.822 C 265.695 270.705,262.882 272.388,261.956 272.395 C 261.602 272.398,260.671 272.835,259.888 273.366 C 259.106 273.897,258.397 274.263,258.313 274.180 C 258.229 274.096,256.550 273.596,254.580 273.069 C 252.611 272.542,250.190 271.747,249.200 271.301 C 243.779 268.863,237.927 268.882,230.171 271.365 C 225.308 272.922,224.397 273.580,217.519 280.500 L 214.437 283.600 194.519 283.568 C 170.383 283.530,168.279 283.273,167.364 280.247 C 167.052 279.213,165.623 277.600,165.020 277.600 C 164.778 277.600,163.395 276.475,161.946 275.100 C 159.236 272.527,157.619 271.809,150.400 269.971 C 145.162 268.638,137.900 269.999,129.063 273.970 C 125.748 275.459,125.053 275.488,123.368 274.203 C 122.649 273.654,121.102 272.952,119.930 272.643 C 116.309 271.686,113.191 270.367,111.867 269.230 C 111.170 268.631,108.666 267.209,106.303 266.070 C 103.940 264.931,101.780 263.626,101.503 263.171 C 101.226 262.716,99.870 261.708,98.490 260.932 C 97.109 260.155,95.505 258.897,94.924 258.136 C 94.344 257.375,93.381 256.501,92.785 256.192 C 91.743 255.654,89.945 254.018,88.146 251.971 C 87.676 251.437,86.461 250.286,85.446 249.413 C 83.446 247.693,83.258 247.022,84.243 245.118 C 85.492 242.702,87.406 241.422,90.458 240.959 C 92.399 240.665,95.444 239.413,96.299 238.558 C 96.606 238.251,97.038 238.000,97.260 238.000 C 97.704 238.000,101.200 234.624,101.200 234.196 C 101.200 234.049,101.965 233.176,102.900 232.257 C 104.704 230.483,106.400 227.627,106.400 226.363 C 106.400 225.944,107.124 223.992,108.010 222.026 C 110.826 215.771,111.356 212.729,112.608 195.600 C 113.944 177.340,117.078 160.908,120.199 155.800 C 121.140 154.260,122.135 152.280,122.409 151.400 C 123.178 148.935,124.359 146.778,126.054 144.744 C 126.904 143.724,127.600 142.608,127.600 142.265 C 127.600 141.922,128.545 140.526,129.700 139.164 C 130.855 137.801,132.415 135.856,133.166 134.843 C 133.918 133.829,134.687 132.939,134.875 132.864 C 135.063 132.789,135.488 132.204,135.819 131.564 C 136.150 130.924,136.573 130.400,136.760 130.400 C 136.947 130.400,138.787 128.758,140.850 126.751 C 142.912 124.744,145.410 122.550,146.400 121.875 C 147.390 121.200,148.650 120.239,149.200 119.739 C 151.384 117.755,152.146 117.200,152.688 117.200 C 153.244 117.200,155.815 115.448,156.600 114.535 C 157.367 113.642,160.117 112.000,160.846 112.000 C 161.540 112.000,166.773 109.385,167.200 108.824 C 167.866 107.949,170.103 106.837,172.000 106.437 C 174.896 105.826,178.209 104.665,182.501 102.757 C 184.426 101.901,186.586 101.199,187.301 101.199 C 188.015 101.198,190.220 100.906,192.200 100.549 C 194.180 100.193,197.510 99.674,199.600 99.397 C 204.073 98.803,220.346 98.657,223.800 99.179 M177.530 154.930 C 174.458 156.010,172.866 156.958,172.501 157.923 C 172.360 158.295,171.362 159.841,170.282 161.359 C 167.902 164.702,167.094 168.376,168.199 170.826 C 170.411 175.731,174.245 180.400,176.060 180.400 C 176.436 180.400,177.019 180.677,177.357 181.015 C 179.914 183.571,184.542 183.063,188.821 179.756 C 190.356 178.570,191.761 177.600,191.944 177.600 C 192.686 177.600,193.597 176.031,194.615 173.000 C 198.445 161.596,188.495 151.072,177.530 154.930 M238.485 154.966 C 235.149 156.168,233.804 157.224,232.609 159.583 C 232.062 160.661,231.437 161.654,231.218 161.789 C 229.071 163.116,228.611 168.923,230.371 172.487 C 233.141 178.097,233.430 178.378,240.181 182.041 C 243.154 183.654,247.519 182.288,251.629 178.459 C 252.136 177.986,252.763 177.600,253.022 177.600 C 253.609 177.600,255.307 175.057,255.932 173.240 C 256.921 170.368,256.537 163.710,255.263 161.644 C 253.946 159.507,251.240 156.400,250.696 156.400 C 250.491 156.400,249.830 156.049,249.227 155.619 C 246.908 153.968,242.074 153.674,238.485 154.966 M186.826 157.614 C 187.204 157.816,187.978 158.776,188.547 159.746 C 189.116 160.716,190.209 161.880,190.977 162.334 C 192.455 163.205,192.654 163.700,192.927 167.179 C 193.108 169.493,192.359 172.404,191.371 173.224 C 191.057 173.485,190.800 174.024,190.800 174.422 C 190.800 174.820,190.458 175.255,190.040 175.387 C 189.623 175.520,188.839 176.070,188.300 176.610 C 186.847 178.062,181.564 179.048,179.600 178.234 C 178.830 177.915,177.557 177.549,176.770 177.422 C 174.887 177.117,173.439 175.494,172.825 173.000 C 172.555 171.900,172.182 170.617,171.998 170.150 C 171.424 168.695,172.283 163.614,173.372 162.023 C 173.907 161.241,174.553 160.135,174.807 159.566 C 175.783 157.378,183.917 156.057,186.826 157.614 M246.174 157.172 C 248.170 157.499,248.297 157.602,250.400 160.568 C 250.950 161.343,251.618 161.983,251.884 161.989 C 253.374 162.023,254.000 163.677,253.999 167.575 C 253.997 172.254,253.441 173.356,249.385 176.728 C 247.677 178.148,242.290 179.143,240.863 178.303 C 240.278 177.958,238.966 177.552,237.947 177.400 C 236.053 177.117,234.400 175.635,234.400 174.220 C 234.400 173.884,234.037 172.662,233.593 171.504 C 232.467 168.570,232.828 164.668,234.446 162.280 C 235.073 161.356,235.589 160.296,235.593 159.924 C 235.614 157.955,241.547 156.412,246.174 157.172 M168.660 198.357 C 165.172 200.656,164.425 204.795,166.339 211.200 C 166.766 212.630,167.218 214.254,167.342 214.808 C 167.467 215.362,167.980 216.257,168.482 216.796 C 169.615 218.012,170.985 220.015,171.844 221.711 C 173.458 224.898,182.282 232.527,186.964 234.783 C 188.766 235.651,190.575 236.730,190.983 237.181 C 191.390 237.631,192.011 238.003,192.362 238.006 C 192.713 238.009,193.760 238.276,194.688 238.600 C 203.294 241.598,218.401 241.678,229.000 238.782 C 229.880 238.541,231.043 238.239,231.584 238.109 C 232.125 237.980,232.921 237.546,233.353 237.144 C 233.784 236.742,236.195 235.412,238.711 234.189 C 241.768 232.702,243.352 231.705,243.489 231.182 C 243.601 230.752,243.852 230.400,244.046 230.400 C 244.240 230.400,245.066 229.770,245.882 229.000 C 246.699 228.230,247.650 227.600,247.997 227.600 C 248.344 227.600,248.967 227.015,249.382 226.300 C 249.798 225.585,250.377 224.856,250.669 224.680 C 250.961 224.504,251.200 224.162,251.200 223.919 C 251.200 223.676,251.875 222.812,252.700 221.999 C 254.870 219.860,256.400 217.544,256.400 216.398 C 256.400 215.841,258.007 212.269,258.379 212.000 C 260.694 210.324,261.100 203.577,259.023 201.278 C 256.575 198.568,252.859 197.066,251.376 198.187 C 250.949 198.510,250.378 198.780,250.107 198.787 C 247.961 198.843,244.496 203.690,243.731 207.706 C 243.584 208.477,242.821 209.648,241.842 210.603 C 240.939 211.484,239.537 213.112,238.726 214.221 C 237.915 215.330,236.745 216.493,236.126 216.806 C 235.507 217.118,234.086 218.216,232.968 219.245 C 231.521 220.578,230.255 221.319,228.568 221.822 C 227.266 222.211,224.850 222.973,223.200 223.516 C 215.084 226.188,206.825 226.136,200.580 223.374 C 199.368 222.838,197.995 222.400,197.527 222.400 C 196.385 222.400,191.713 219.753,190.160 218.227 C 188.773 216.863,188.274 216.460,186.703 215.431 C 185.681 214.761,185.127 213.931,182.285 208.800 C 181.614 207.590,180.916 206.540,180.733 206.467 C 180.550 206.393,180.400 206.083,180.400 205.777 C 180.400 204.442,178.446 200.956,176.717 199.206 C 175.030 197.499,170.660 197.038,168.660 198.357 M254.808 201.405 L 256.400 202.410 256.400 205.725 C 256.400 207.548,256.236 209.211,256.036 209.420 C 255.835 209.629,255.191 211.351,254.605 213.248 C 253.782 215.908,253.272 216.892,252.369 217.560 C 251.726 218.035,251.200 218.689,251.200 219.012 C 251.200 219.335,251.016 219.600,250.791 219.600 C 250.566 219.600,249.659 220.719,248.775 222.087 C 247.805 223.587,246.460 225.034,245.384 225.734 C 244.403 226.372,243.600 227.053,243.600 227.247 C 243.600 227.441,243.375 227.602,243.100 227.604 C 242.825 227.607,241.737 228.404,240.682 229.377 C 238.620 231.280,235.871 232.800,234.495 232.800 C 234.026 232.800,232.568 233.430,231.254 234.200 C 229.940 234.970,228.581 235.600,228.233 235.600 C 227.885 235.600,227.600 235.746,227.600 235.924 C 227.600 236.963,219.673 237.996,211.800 237.983 C 203.180 237.968,197.813 237.121,195.189 235.361 C 193.231 234.048,191.351 233.226,188.033 232.234 C 186.349 231.731,185.469 231.142,184.080 229.593 C 183.098 228.497,181.957 227.600,181.546 227.600 C 180.760 227.600,178.005 224.831,177.512 223.545 C 177.353 223.132,176.813 222.605,176.312 222.374 C 175.090 221.811,173.367 219.333,172.723 217.213 C 172.420 216.215,171.734 215.141,171.092 214.663 C 169.769 213.677,168.220 209.153,167.891 205.316 C 167.569 201.546,168.529 200.652,172.503 201.022 C 175.968 201.344,176.503 201.840,177.204 205.380 C 177.467 206.711,177.752 208.070,177.837 208.400 C 177.923 208.730,178.686 209.736,179.534 210.635 C 180.969 212.156,182.455 214.525,182.934 216.053 C 183.047 216.412,184.155 217.288,185.396 217.998 C 186.638 218.708,187.801 219.674,187.981 220.145 C 188.515 221.541,194.088 224.800,195.942 224.800 C 196.204 224.800,197.293 225.401,198.360 226.135 C 203.296 229.531,221.324 229.482,226.223 226.059 C 227.115 225.436,228.345 224.800,228.955 224.647 C 231.758 223.944,235.274 221.907,235.676 220.754 C 235.897 220.119,236.338 219.600,236.656 219.600 C 237.707 219.600,240.695 217.023,241.177 215.700 C 241.438 214.985,241.814 214.400,242.013 214.400 C 243.145 214.400,245.996 210.635,246.007 209.126 C 246.010 208.617,246.456 207.480,246.998 206.600 C 247.539 205.720,248.230 204.485,248.534 203.855 C 249.012 202.862,252.026 200.499,252.908 200.426 C 253.077 200.412,253.932 200.852,254.808 201.405 M209.874 302.070 C 210.383 302.548,210.810 303.313,210.823 303.770 C 210.882 305.886,212.366 310.272,213.405 311.400 C 214.317 312.390,214.545 313.066,214.707 315.268 C 215.040 319.806,215.011 319.842,210.809 320.114 C 207.949 320.300,206.799 320.568,205.241 321.416 C 200.534 323.978,197.815 324.636,194.600 323.991 C 193.200 323.710,190.917 323.606,189.122 323.740 C 186.434 323.942,186.017 323.884,185.825 323.280 C 185.332 321.725,178.013 319.611,173.100 319.605 C 169.803 319.600,168.575 319.084,169.900 318.261 C 170.065 318.158,170.200 317.203,170.200 316.137 C 170.200 314.541,170.384 314.043,171.248 313.308 C 172.350 312.370,172.513 311.855,173.418 306.446 C 173.726 304.601,174.258 302.666,174.599 302.146 L 175.218 301.200 192.083 301.200 C 208.849 301.200,208.954 301.205,209.874 302.070 " stroke="none" fill="#7a7f7f" fill-rule="evenodd"></path><path id="path4" d="M199.600 99.397 C 197.510 99.674,194.180 100.193,192.200 100.549 C 190.220 100.906,188.015 101.198,187.301 101.199 C 186.586 101.199,184.426 101.901,182.501 102.757 C 178.209 104.665,174.896 105.826,172.000 106.437 C 170.103 106.837,167.866 107.949,167.200 108.824 C 166.773 109.385,161.540 112.000,160.846 112.000 C 160.117 112.000,157.367 113.642,156.600 114.535 C 155.815 115.448,153.244 117.200,152.688 117.200 C 152.146 117.200,151.384 117.755,149.200 119.739 C 148.650 120.239,147.390 121.200,146.400 121.875 C 145.410 122.550,142.912 124.744,140.850 126.751 C 138.787 128.758,136.947 130.400,136.760 130.400 C 136.573 130.400,136.150 130.924,135.819 131.564 C 135.488 132.204,135.063 132.789,134.875 132.864 C 134.687 132.939,133.918 133.829,133.166 134.843 C 132.415 135.856,130.855 137.801,129.700 139.164 C 128.545 140.526,127.600 141.922,127.600 142.265 C 127.600 142.608,126.904 143.724,126.054 144.744 C 124.359 146.778,123.178 148.935,122.409 151.400 C 122.135 152.280,121.140 154.260,120.199 155.800 C 117.078 160.908,113.944 177.340,112.608 195.600 C 111.356 212.729,110.826 215.771,108.010 222.026 C 107.124 223.992,106.400 225.944,106.400 226.363 C 106.400 227.627,104.704 230.483,102.900 232.257 C 101.965 233.176,101.200 234.049,101.200 234.196 C 101.200 234.624,97.704 238.000,97.260 238.000 C 97.038 238.000,96.606 238.251,96.299 238.558 C 95.444 239.413,92.399 240.665,90.458 240.959 C 87.406 241.422,85.492 242.702,84.243 245.118 C 83.258 247.022,83.446 247.693,85.446 249.413 C 86.461 250.286,87.676 251.437,88.146 251.971 C 89.945 254.018,91.743 255.654,92.785 256.192 C 93.381 256.501,94.344 257.375,94.924 258.136 C 95.505 258.897,97.109 260.155,98.490 260.932 C 99.870 261.708,101.226 262.716,101.503 263.171 C 101.780 263.626,103.940 264.931,106.303 266.070 C 108.666 267.209,111.170 268.631,111.867 269.230 C 113.191 270.367,116.309 271.686,119.930 272.643 C 121.102 272.952,122.649 273.654,123.368 274.203 C 125.053 275.488,125.748 275.459,129.063 273.970 C 137.900 269.999,145.162 268.638,150.400 269.971 C 157.619 271.809,159.236 272.527,161.946 275.100 C 163.395 276.475,164.778 277.600,165.020 277.600 C 165.623 277.600,167.052 279.213,167.364 280.247 C 168.279 283.273,170.383 283.530,194.519 283.568 L 214.437 283.600 217.519 280.500 C 224.397 273.580,225.308 272.922,230.171 271.365 C 237.927 268.882,243.779 268.863,249.200 271.301 C 250.190 271.747,252.611 272.542,254.580 273.069 C 256.550 273.596,258.229 274.096,258.313 274.180 C 258.397 274.263,259.106 273.897,259.888 273.366 C 260.671 272.835,261.602 272.398,261.956 272.395 C 262.882 272.388,265.695 270.705,267.928 268.822 C 268.986 267.930,269.996 267.200,270.172 267.200 C 270.722 267.200,276.000 263.558,276.000 263.178 C 276.000 262.980,277.440 261.809,279.201 260.575 C 280.996 259.317,282.503 257.952,282.631 257.466 C 282.757 256.990,284.017 255.741,285.430 254.691 C 286.844 253.640,288.000 252.487,288.000 252.128 C 288.000 251.768,289.260 250.246,290.800 248.746 C 292.340 247.245,293.600 245.768,293.600 245.463 C 293.600 245.159,294.140 244.231,294.800 243.400 C 295.460 242.569,296.000 241.760,296.000 241.601 C 296.000 241.442,296.585 240.690,297.300 239.930 C 298.015 239.170,299.218 237.119,299.972 235.374 C 300.727 233.628,301.832 231.632,302.427 230.938 C 303.467 229.725,305.465 224.155,306.397 219.870 C 306.628 218.809,307.281 217.025,307.848 215.905 C 308.918 213.794,309.105 212.864,310.405 203.200 C 312.056 190.926,310.786 173.975,307.757 167.859 C 307.011 166.351,306.396 164.731,306.390 164.259 C 306.372 162.567,303.666 155.234,302.506 153.732 C 301.855 152.889,300.631 150.612,299.785 148.672 C 298.940 146.731,297.783 144.751,297.213 144.272 C 296.644 143.792,295.937 142.815,295.641 142.100 C 295.345 141.385,294.965 140.800,294.797 140.800 C 294.629 140.800,294.193 140.172,293.829 139.405 C 293.235 138.152,289.045 133.198,288.300 132.867 C 288.135 132.793,288.000 132.499,288.000 132.212 C 288.000 131.587,285.440 129.012,283.900 128.088 C 283.295 127.725,282.800 127.233,282.800 126.995 C 282.800 126.423,280.316 124.103,277.701 122.234 C 276.547 121.409,275.467 120.524,275.301 120.267 C 274.838 119.549,271.702 117.200,271.207 117.200 C 270.652 117.200,268.774 115.885,266.209 113.700 C 265.112 112.765,263.882 112.000,263.477 112.000 C 262.733 112.000,256.824 109.049,256.419 108.475 C 255.999 107.880,253.149 106.400,252.423 106.400 C 252.021 106.400,250.186 105.861,248.346 105.202 C 246.506 104.543,244.744 104.003,244.431 104.002 C 244.119 104.001,243.579 103.758,243.231 103.462 C 241.551 102.031,239.144 101.500,223.800 99.179 C 220.346 98.657,204.073 98.803,199.600 99.397 M223.620 101.599 C 232.713 102.274,235.166 102.746,237.054 104.183 C 238.925 105.607,240.352 106.090,245.200 106.942 C 251.230 108.001,254.000 109.206,254.000 110.772 C 254.000 111.172,255.687 111.851,257.600 112.221 C 258.370 112.370,259.180 112.633,259.400 112.805 C 259.620 112.977,260.567 113.345,261.505 113.623 C 263.217 114.132,263.815 114.609,264.584 116.080 C 264.813 116.518,265.900 117.239,267.000 117.682 C 270.682 119.168,271.492 119.706,272.001 121.002 C 272.344 121.877,272.932 122.432,273.877 122.773 C 274.634 123.047,276.212 124.245,277.383 125.435 C 278.555 126.626,279.668 127.601,279.857 127.603 C 280.046 127.605,280.920 128.452,281.800 129.486 C 282.680 130.519,283.906 131.823,284.525 132.383 C 286.625 134.282,287.569 135.415,288.485 137.138 C 288.988 138.083,289.940 139.159,290.599 139.528 C 292.432 140.555,293.139 141.520,293.417 143.374 C 293.735 145.496,293.846 145.658,295.800 146.883 C 297.463 147.925,297.990 149.061,299.171 154.152 C 299.646 156.197,300.839 158.014,302.214 158.786 C 303.093 159.280,304.000 162.358,304.000 164.851 C 304.000 165.636,304.471 168.331,305.047 170.839 C 305.623 173.348,306.216 176.216,306.364 177.213 C 306.513 178.210,307.132 179.916,307.740 181.004 L 308.845 182.982 308.852 191.498 L 308.859 200.014 307.829 201.238 C 307.263 201.911,306.719 202.853,306.620 203.331 C 306.522 203.809,306.087 205.820,305.653 207.800 C 305.220 209.780,304.663 212.930,304.415 214.800 C 303.012 225.379,303.218 224.543,301.854 225.200 C 300.356 225.921,298.800 228.131,298.800 229.537 C 298.800 233.172,297.471 236.223,295.628 236.820 C 293.864 237.391,293.829 237.438,293.209 240.000 C 292.434 243.203,292.194 243.600,291.030 243.600 C 289.645 243.600,288.002 245.073,287.987 246.329 C 287.975 247.391,286.396 249.600,285.650 249.600 C 284.907 249.600,282.800 251.676,282.800 252.408 C 282.800 253.148,281.223 254.478,279.018 255.599 C 278.263 255.983,277.721 256.650,277.521 257.445 C 277.224 258.617,274.951 260.000,273.322 260.000 C 272.571 260.000,270.800 262.397,270.800 263.413 C 270.800 264.202,270.545 264.405,269.300 264.606 C 265.676 265.191,264.992 265.439,264.605 266.310 C 264.388 266.800,263.988 267.200,263.715 267.200 C 263.443 267.200,262.945 267.732,262.609 268.382 C 262.171 269.230,261.601 269.639,260.595 269.827 C 259.823 269.972,259.114 270.216,259.019 270.370 C 258.866 270.617,252.046 269.811,251.805 269.517 C 251.753 269.453,251.535 268.862,251.323 268.204 C 249.912 263.842,228.194 264.118,227.676 268.504 C 227.559 269.485,227.344 269.591,224.476 270.070 C 220.887 270.671,219.600 271.670,219.600 273.858 C 219.600 275.076,219.491 275.200,218.426 275.200 C 215.647 275.200,214.409 276.713,214.402 280.117 L 214.400 281.233 193.143 281.117 C 172.699 281.004,171.870 280.971,171.443 280.235 C 171.200 279.814,170.685 279.139,170.300 278.735 C 169.915 278.331,169.600 277.722,169.600 277.382 C 169.600 277.042,169.166 276.330,168.636 275.799 C 168.105 275.269,167.558 274.321,167.420 273.692 C 167.231 272.831,166.803 272.420,165.685 272.026 C 164.868 271.737,163.906 271.244,163.546 270.930 C 163.186 270.616,161.723 270.165,160.296 269.928 C 157.947 269.539,157.649 269.380,157.150 268.249 C 155.247 263.930,133.803 264.087,132.935 268.426 C 132.687 269.663,132.135 269.889,128.070 270.407 C 126.361 270.625,124.429 270.550,122.114 270.175 C 118.242 269.548,118.550 269.704,117.665 267.932 C 116.898 266.395,112.024 264.439,108.900 264.414 C 107.351 264.401,107.200 264.310,107.200 263.386 C 107.200 261.760,106.090 260.452,104.461 260.159 C 103.657 260.014,102.820 259.760,102.600 259.594 C 102.380 259.428,101.633 259.171,100.939 259.023 C 100.056 258.834,99.533 258.405,99.196 257.590 C 98.931 256.950,98.401 256.327,98.018 256.206 C 97.635 256.084,97.122 255.547,96.878 255.012 C 96.529 254.246,95.931 253.935,94.069 253.550 L 91.702 253.061 91.059 251.020 C 90.448 249.082,90.319 248.953,88.508 248.454 C 87.459 248.165,86.378 247.862,86.107 247.779 C 84.927 247.423,86.179 246.452,88.130 246.211 C 91.516 245.793,94.786 244.215,95.348 242.729 C 95.838 241.433,97.106 240.800,99.209 240.800 C 100.906 240.800,101.822 239.703,102.383 237.000 C 102.602 235.943,102.836 235.772,104.350 235.569 C 106.385 235.294,106.521 235.111,107.583 231.174 C 108.238 228.745,108.753 227.754,110.153 226.230 C 112.089 224.121,112.339 223.152,113.204 214.400 C 113.866 207.708,114.282 205.353,114.991 204.269 C 115.941 202.820,116.686 198.011,117.173 190.192 C 118.664 166.255,119.129 162.217,120.432 161.876 C 120.840 161.769,121.435 161.078,121.753 160.341 C 123.272 156.824,124.000 154.782,124.000 154.039 C 124.000 152.844,125.270 150.306,126.276 149.490 C 126.757 149.100,127.412 148.290,127.731 147.690 C 128.050 147.091,128.691 145.887,129.156 145.015 C 129.620 144.144,130.003 143.064,130.006 142.615 C 130.015 141.492,130.402 141.055,131.800 140.592 C 132.728 140.285,133.324 139.567,134.425 137.427 C 135.291 135.745,136.228 134.490,136.813 134.229 C 137.995 133.702,139.600 132.250,139.600 131.708 C 139.600 131.023,141.730 129.017,143.292 128.232 C 144.112 127.820,144.889 127.148,145.019 126.739 C 145.369 125.638,147.188 123.600,147.822 123.600 C 149.197 123.600,151.221 122.200,151.679 120.932 C 152.068 119.857,152.516 119.493,154.096 118.968 C 156.892 118.040,159.518 116.479,160.484 115.172 C 161.386 113.951,162.981 113.195,166.292 112.416 C 168.010 112.012,171.476 109.956,172.400 108.793 C 172.868 108.205,180.428 106.400,182.425 106.400 C 183.457 106.400,187.590 104.444,188.800 103.383 C 190.606 101.800,211.737 100.717,223.620 101.599 M178.980 150.876 C 178.309 151.093,177.589 151.658,177.380 152.132 C 177.105 152.756,176.280 153.186,174.400 153.684 C 171.557 154.438,169.600 156.155,169.600 157.895 C 169.600 158.597,169.319 158.876,168.430 159.054 C 165.288 159.682,164.244 169.880,166.705 175.899 C 167.087 176.833,167.589 177.598,167.819 177.599 C 168.473 177.601,171.722 180.864,172.396 182.193 C 174.577 186.501,189.691 186.066,190.955 181.659 C 191.247 180.640,191.525 180.400,192.416 180.400 C 194.499 180.400,195.739 178.642,196.565 174.516 C 197.022 172.233,197.575 170.584,198.019 170.183 C 198.761 169.511,198.406 167.200,197.561 167.200 C 197.362 167.200,197.200 166.426,197.200 165.479 C 197.200 159.841,194.889 155.832,190.689 154.184 C 189.106 153.563,187.538 152.722,187.205 152.315 C 186.039 150.888,181.434 150.083,178.980 150.876 M240.000 151.024 C 239.450 151.324,238.727 151.904,238.394 152.313 C 237.721 153.139,235.568 154.000,234.176 154.000 C 233.091 154.000,231.249 156.054,230.938 157.611 C 230.778 158.411,230.320 158.869,229.259 159.290 C 225.719 160.695,225.494 177.600,229.016 177.600 C 229.642 177.600,232.696 180.643,232.986 181.555 C 234.564 186.527,252.400 186.166,252.400 181.162 C 252.400 180.701,252.885 180.425,254.010 180.245 C 256.052 179.918,256.951 178.539,257.817 174.404 C 258.163 172.752,258.678 170.950,258.960 170.400 C 259.314 169.711,259.367 168.965,259.129 168.000 C 258.940 167.230,258.603 165.430,258.380 164.001 C 258.157 162.571,257.621 160.669,257.188 159.774 C 256.754 158.880,256.400 157.872,256.400 157.536 C 256.400 156.447,253.727 154.631,250.617 153.605 C 249.746 153.318,248.752 152.735,248.408 152.310 C 247.210 150.832,241.855 150.012,240.000 151.024 M186.993 155.044 C 194.144 158.464,197.133 165.504,194.615 173.000 C 193.597 176.031,192.686 177.600,191.944 177.600 C 191.761 177.600,190.356 178.570,188.821 179.756 C 184.542 183.063,179.914 183.571,177.357 181.015 C 177.019 180.677,176.436 180.400,176.060 180.400 C 174.245 180.400,170.411 175.731,168.199 170.826 C 167.094 168.376,167.902 164.702,170.282 161.359 C 171.362 159.841,172.360 158.295,172.501 157.923 C 173.617 154.973,182.962 153.117,186.993 155.044 M245.565 154.422 C 246.976 154.651,248.624 155.190,249.227 155.619 C 249.830 156.049,250.491 156.400,250.696 156.400 C 251.240 156.400,253.946 159.507,255.263 161.644 C 256.537 163.710,256.921 170.368,255.932 173.240 C 255.307 175.057,253.609 177.600,253.022 177.600 C 252.763 177.600,252.136 177.986,251.629 178.459 C 247.519 182.288,243.154 183.654,240.181 182.041 C 233.430 178.378,233.141 178.097,230.371 172.487 C 228.611 168.923,229.071 163.116,231.218 161.789 C 231.437 161.654,232.062 160.661,232.609 159.583 C 234.681 155.494,239.743 153.478,245.565 154.422 M167.012 194.843 C 166.234 195.526,165.293 196.741,164.921 197.543 C 164.549 198.344,163.607 199.562,162.827 200.250 C 160.324 202.458,160.662 209.643,163.352 211.405 C 164.110 211.902,164.355 212.515,164.576 214.472 C 164.959 217.851,167.053 222.248,168.416 222.534 C 169.421 222.744,171.200 225.517,171.200 226.874 C 171.200 227.639,172.731 229.026,174.000 229.412 C 175.639 229.909,176.800 230.842,176.800 231.660 C 176.800 233.009,178.005 234.365,179.443 234.635 C 180.194 234.775,180.898 235.035,181.007 235.211 C 181.115 235.386,181.926 235.652,182.807 235.801 C 183.863 235.980,184.566 236.367,184.866 236.936 C 186.105 239.285,188.486 240.802,190.926 240.797 C 194.436 240.790,198.417 241.727,198.639 242.613 C 199.675 246.739,223.640 246.741,225.520 242.616 C 225.947 241.679,229.637 240.800,233.144 240.800 C 236.104 240.800,240.000 238.387,240.000 236.554 C 240.000 236.017,240.435 235.866,243.322 235.401 C 245.095 235.115,246.279 234.078,246.623 232.510 C 247.062 230.509,247.161 230.400,248.534 230.400 C 250.493 230.400,251.832 229.165,252.439 226.800 C 252.873 225.105,253.096 224.800,253.902 224.800 C 255.976 224.800,256.419 224.200,257.823 219.500 C 258.307 217.879,258.709 217.200,259.185 217.200 C 263.399 217.200,264.371 200.046,260.284 197.800 C 259.484 197.360,258.468 196.528,258.025 195.951 C 255.665 192.869,250.122 192.791,247.823 195.806 C 247.259 196.545,246.105 197.539,245.259 198.015 C 243.793 198.839,243.678 199.055,242.790 202.640 C 242.278 204.708,241.660 206.400,241.416 206.400 C 241.172 206.400,240.654 206.940,240.264 207.600 C 239.874 208.260,239.398 208.800,239.206 208.800 C 238.456 208.800,237.580 210.146,236.976 212.225 C 236.425 214.118,236.212 214.400,235.332 214.400 C 233.997 214.400,231.646 215.537,231.068 216.462 C 230.815 216.868,230.397 217.200,230.139 217.200 C 229.882 217.200,229.246 217.705,228.727 218.322 C 226.487 220.984,211.406 222.225,201.200 220.587 C 196.162 219.778,196.000 219.716,196.000 218.581 C 196.000 217.624,193.659 216.000,192.278 216.000 C 191.973 216.000,191.398 215.640,191.000 215.200 C 190.602 214.760,190.073 214.400,189.826 214.400 C 189.578 214.400,189.167 213.849,188.913 213.175 C 188.620 212.399,188.002 211.780,187.229 211.488 C 185.952 211.006,185.202 209.389,184.600 205.821 C 184.454 204.953,183.989 203.804,183.567 203.267 C 183.145 202.731,182.800 202.068,182.800 201.795 C 182.800 201.521,182.260 201.073,181.600 200.800 C 180.940 200.527,180.400 200.070,180.400 199.784 C 180.400 198.788,178.370 195.234,177.335 194.421 C 175.459 192.945,168.867 193.215,167.012 194.843 M174.117 197.859 C 175.479 198.085,176.990 199.192,178.200 200.851 C 178.878 201.781,180.400 205.190,180.400 205.777 C 180.400 206.083,180.550 206.393,180.733 206.467 C 180.916 206.540,181.614 207.590,182.285 208.800 C 185.127 213.931,185.681 214.761,186.703 215.431 C 188.274 216.460,188.773 216.863,190.160 218.227 C 191.713 219.753,196.385 222.400,197.527 222.400 C 197.995 222.400,199.368 222.838,200.580 223.374 C 206.825 226.136,215.084 226.188,223.200 223.516 C 224.850 222.973,227.266 222.211,228.568 221.822 C 230.255 221.319,231.521 220.578,232.968 219.245 C 234.086 218.216,235.507 217.118,236.126 216.806 C 236.745 216.493,237.915 215.330,238.726 214.221 C 239.537 213.112,240.939 211.484,241.842 210.603 C 242.821 209.648,243.584 208.477,243.731 207.706 C 244.496 203.690,247.961 198.843,250.107 198.787 C 250.378 198.780,250.949 198.510,251.376 198.187 C 252.859 197.066,256.575 198.568,259.023 201.278 C 261.100 203.577,260.694 210.324,258.379 212.000 C 258.007 212.269,256.400 215.841,256.400 216.398 C 256.400 217.544,254.870 219.860,252.700 221.999 C 251.875 222.812,251.200 223.676,251.200 223.919 C 251.200 224.162,250.961 224.504,250.669 224.680 C 250.377 224.856,249.798 225.585,249.382 226.300 C 248.967 227.015,248.344 227.600,247.997 227.600 C 247.650 227.600,246.699 228.230,245.882 229.000 C 245.066 229.770,244.240 230.400,244.046 230.400 C 243.852 230.400,243.601 230.752,243.489 231.182 C 243.352 231.705,241.768 232.702,238.711 234.189 C 236.195 235.412,233.784 236.742,233.353 237.144 C 232.921 237.546,232.125 237.980,231.584 238.109 C 231.043 238.239,229.880 238.541,229.000 238.782 C 218.401 241.678,203.294 241.598,194.688 238.600 C 193.760 238.276,192.713 238.009,192.362 238.006 C 192.011 238.003,191.390 237.631,190.983 237.181 C 190.575 236.730,188.766 235.651,186.964 234.783 C 182.282 232.527,173.458 224.898,171.844 221.711 C 170.985 220.015,169.615 218.012,168.482 216.796 C 167.980 216.257,167.467 215.362,167.342 214.808 C 167.218 214.254,166.766 212.630,166.339 211.200 C 163.547 201.857,166.602 196.618,174.117 197.859 " stroke="none" fill="#c8ccd4" fill-rule="evenodd"></path></g></svg>